<svg xmlns="http://www.w3.org/2000/svg" xmlns:xlink="http://www.w3.org/1999/xlink" width="500" zoomAndPan="magnify" viewBox="0 0 375 374.999991" height="500" preserveAspectRatio="xMidYMid meet" version="1.0"><defs><clipPath id="id1"><path d="M 9.386719 74 L 365.335938 74 L 365.335938 354.46875 L 9.386719 354.46875 Z M 9.386719 74 " clip-rule="nonzero"/></clipPath><clipPath id="id2"><path d="M 266 20.71875 L 343 20.71875 L 343 98 L 266 98 Z M 266 20.71875 " clip-rule="nonzero"/></clipPath></defs><g clip-path="url(#id1)"><path fill="#78b8c6" d="M 187.359375 327.21875 C 145.742188 327.21875 108.042969 310.257812 80.773438 282.851562 C 108.960938 254.5625 147.132812 238.519531 187.359375 238.519531 C 227.558594 238.488281 265.761719 254.5625 293.917969 282.851562 C 266.648438 310.257812 228.949219 327.21875 187.359375 327.21875 Z M 132.597656 156.246094 C 132.597656 126.027344 157.152344 101.410156 187.359375 101.410156 C 217.539062 101.410156 242.125 126.027344 242.125 156.246094 C 242.125 186.5 217.539062 211.085938 187.359375 211.085938 C 157.152344 211.085938 132.597656 186.5 132.597656 156.246094 Z M 351.621094 162.734375 C 344.070312 162.734375 337.9375 168.875 337.9375 176.4375 C 337.9375 208.046875 328.175781 237.414062 311.488281 261.652344 C 291.265625 241.90625 266.804688 227.445312 240.167969 219.15625 C 258.082031 204.0625 269.523438 181.46875 269.523438 156.246094 C 269.523438 110.902344 232.644531 74.007812 187.359375 74.007812 C 142.078125 74.007812 105.199219 110.902344 105.199219 156.246094 C 105.199219 181.46875 116.636719 204.0625 134.554688 219.15625 C 107.917969 227.445312 83.457031 241.90625 63.234375 261.652344 C 46.546875 237.382812 36.785156 208.046875 36.785156 176.4375 C 36.785156 168.84375 30.621094 162.703125 23.070312 162.703125 C 15.515625 162.703125 9.386719 168.84375 9.386719 176.4375 C 9.386719 274.6875 89.210938 354.621094 187.359375 354.621094 C 285.511719 354.621094 365.335938 274.6875 365.335938 176.4375 C 365.335938 168.84375 359.207031 162.703125 351.652344 162.703125 L 351.621094 162.734375 " fill-opacity="1" fill-rule="nonzero"/></g><g clip-path="url(#id2)"><path fill="#78b8c6" d="M 304.503906 20.71875 C 296.953125 20.71875 290.820312 26.859375 290.820312 34.421875 L 290.820312 45.402344 L 279.886719 45.402344 C 272.335938 45.402344 266.203125 51.539062 266.203125 59.101562 C 266.203125 66.664062 272.335938 72.804688 279.886719 72.804688 L 290.820312 72.804688 L 290.820312 83.785156 C 290.820312 91.347656 296.953125 97.484375 304.503906 97.484375 C 312.089844 97.484375 318.21875 91.347656 318.21875 83.785156 L 318.21875 72.804688 L 329.183594 72.804688 C 336.738281 72.804688 342.867188 66.664062 342.867188 59.101562 C 342.867188 51.539062 336.738281 45.402344 329.183594 45.402344 L 318.21875 45.402344 L 318.21875 34.421875 C 318.21875 26.859375 312.089844 20.71875 304.503906 20.71875 " fill-opacity="1" fill-rule="nonzero"/></g></svg>