<svg xmlns="http://www.w3.org/2000/svg" xmlns:xlink="http://www.w3.org/1999/xlink" width="500" zoomAndPan="magnify" viewBox="0 0 375 374.999991" height="500" preserveAspectRatio="xMidYMid meet" version="1.0"><defs><g/><clipPath id="4ed9c0de38"><path d="M 273.074219 34.5625 L 375 34.5625 L 375 136.5625 L 273.074219 136.5625 Z M 273.074219 34.5625 " clip-rule="nonzero"/></clipPath><clipPath id="8ec75616d0"><path d="M 255 45.925781 L 356.195312 45.925781 L 356.195312 140.425781 L 255 140.425781 Z M 255 45.925781 " clip-rule="nonzero"/></clipPath><clipPath id="73e67d8ffa"><path d="M 6 3 L 124.46875 3 L 124.46875 103 L 6 103 Z M 6 3 " clip-rule="nonzero"/></clipPath></defs><g clip-path="url(#4ed9c0de38)"><path fill="#78b8c6" d="M 324.074219 34.5625 C 295.910156 34.5625 273.074219 57.394531 273.074219 85.5625 C 273.074219 113.730469 295.910156 136.5625 324.074219 136.5625 C 352.242188 136.5625 375.074219 113.730469 375.074219 85.5625 C 375.074219 57.394531 352.242188 34.5625 324.074219 34.5625 " fill-opacity="1" fill-rule="nonzero"/></g><g clip-path="url(#8ec75616d0)"><path fill="#f1ece9" d="M 272.222656 45.925781 C 264.195312 45.925781 255.007812 59.652344 255.007812 65.257812 C 255.007812 69.746094 258.839844 73.480469 263.25 75.113281 C 263.488281 74.75 263.742188 74.382812 264.023438 74.039062 C 263.742188 72.535156 263.617188 71.035156 263.617188 69.550781 C 263.617188 59.972656 268.867188 51.597656 276.65625 47.171875 C 275.363281 46.378906 273.835938 45.925781 272.222656 45.925781 Z M 306.648438 45.925781 C 305.035156 45.925781 303.503906 46.378906 302.214844 47.171875 C 310.003906 51.597656 315.253906 59.972656 315.253906 69.550781 C 315.253906 71.035156 315.125 72.535156 314.847656 74.039062 C 315.125 74.382812 315.382812 74.75 315.621094 75.113281 C 320.03125 73.480469 323.859375 69.746094 323.859375 65.257812 C 323.859375 59.652344 314.671875 45.925781 306.648438 45.925781 Z M 289.433594 48.074219 C 277.558594 48.074219 267.917969 57.695312 267.917969 69.550781 C 267.917969 71.507812 268.195312 73.398438 268.691406 75.203125 C 265.550781 78.488281 263.617188 82.910156 263.617188 87.808594 C 263.617188 97.878906 271.8125 106.0625 281.902344 106.0625 L 287.28125 106.0625 L 287.28125 92.554688 C 284.765625 91.140625 282.980469 87.65625 282.980469 86.734375 C 282.980469 85.550781 285.863281 84.585938 289.433594 84.585938 C 293.007812 84.585938 295.890625 85.550781 295.890625 86.734375 C 295.890625 87.65625 294.105469 91.140625 291.585938 92.554688 L 291.585938 106.0625 L 296.964844 106.0625 C 307.054688 106.0625 315.253906 97.878906 315.253906 87.808594 C 315.253906 82.910156 313.320312 78.488281 310.175781 75.203125 C 310.671875 73.398438 310.949219 71.507812 310.949219 69.550781 C 310.949219 57.695312 301.3125 48.074219 289.433594 48.074219 Z M 281.902344 71.699219 C 283.691406 71.699219 285.132812 73.140625 285.132812 74.921875 C 285.132812 76.703125 283.691406 78.144531 281.902344 78.144531 C 280.117188 78.144531 278.675781 76.703125 278.675781 74.921875 C 278.675781 73.140625 280.117188 71.699219 281.902344 71.699219 Z M 296.964844 71.699219 C 298.75 71.699219 300.191406 73.140625 300.191406 74.921875 C 300.191406 76.703125 298.75 78.144531 296.964844 78.144531 C 295.179688 78.144531 293.738281 76.703125 293.738281 74.921875 C 293.738281 73.140625 295.179688 71.699219 296.964844 71.699219 Z M 347.765625 84.605469 C 347.203125 84.542969 346.625 84.695312 346.195312 85.058594 L 336.382812 92.875 C 334.359375 92.210938 329.972656 91.03125 323.859375 91.03125 C 322.203125 91.03125 320.699219 91.113281 319.300781 91.265625 C 317.621094 102.066406 308.238281 110.359375 296.964844 110.359375 L 293.71875 110.359375 C 292.664062 113.6875 291.652344 118.605469 291.585938 125.371094 C 291.585938 125.757812 291.695312 126.144531 291.890625 126.464844 C 292.210938 127.046875 300.320312 140.425781 323.859375 140.425781 C 347.398438 140.425781 355.507812 127.046875 355.832031 126.464844 C 356.027344 126.144531 356.136719 125.757812 356.136719 125.371094 C 356.050781 114.785156 353.617188 108.726562 352.261719 106.195312 C 353.054688 104.882812 353.984375 102.714844 353.984375 99.621094 C 353.984375 91.4375 349.398438 85.640625 349.207031 85.402344 C 348.859375 84.953125 348.324219 84.671875 347.765625 84.605469 Z M 316.328125 110.359375 C 318.117188 110.359375 319.558594 111.796875 319.558594 113.582031 C 319.558594 115.363281 318.117188 116.800781 316.328125 116.800781 C 314.542969 116.800781 313.101562 115.363281 313.101562 113.582031 C 313.101562 111.796875 314.542969 110.359375 316.328125 110.359375 Z M 331.390625 110.359375 C 333.175781 110.359375 334.617188 111.796875 334.617188 113.582031 C 334.617188 115.363281 333.175781 116.800781 331.390625 116.800781 C 329.605469 116.800781 328.164062 115.363281 328.164062 113.582031 C 328.164062 111.796875 329.605469 110.359375 331.390625 110.359375 Z M 323.859375 118.949219 C 327.433594 118.949219 330.316406 119.917969 330.316406 121.097656 C 330.316406 121.847656 328.617188 124.191406 326.832031 125.847656 C 327.585938 126.660156 328.765625 127.539062 330.316406 127.539062 L 330.316406 131.835938 C 327.390625 131.835938 325.238281 130.375 323.859375 128.957031 C 322.484375 130.375 320.332031 131.835938 317.40625 131.835938 L 317.40625 127.539062 C 318.953125 127.539062 320.136719 126.660156 320.890625 125.847656 C 319.105469 124.191406 317.40625 121.847656 317.40625 121.097656 C 317.40625 119.917969 320.289062 118.949219 323.859375 118.949219 Z M 323.859375 118.949219 " fill-opacity="1" fill-rule="nonzero"/></g><g clip-path="url(#73e67d8ffa)"><path fill="#78b8c6" d="M 71.902344 6.066406 C 67.671875 19.738281 86.171875 28.355469 84.75 32.933594 C 77.371094 35.792969 69.207031 31.609375 61.453125 33.914062 C 55.097656 33.488281 48.875 35.0625 43.207031 37.863281 C 36.394531 40.074219 31.914062 45.863281 26.703125 50.398438 C 22.855469 52.148438 21.71875 57.339844 19.148438 59.308594 C 15.070312 58.738281 5.242188 58.960938 10.300781 66.367188 C 11.65625 69.027344 16.679688 73.429688 18.726562 71.460938 C 16.085938 74.648438 13.433594 73.042969 11.71875 76.957031 C 9.386719 81.632812 8.894531 87.132812 6.714844 91.75 C 6.125 95.050781 6.992188 104.195312 11.109375 102.125 C 19.183594 97.113281 13.042969 80.207031 32.511719 81.859375 C 37.582031 81.375 41.160156 76.871094 45.042969 73.957031 C 48.0625 73.023438 51.691406 70.839844 54.265625 69.398438 C 60.050781 66.28125 80.292969 62.828125 82.066406 63.867188 C 88.046875 65.574219 94.554688 64.972656 100.410156 67.410156 C 103.417969 69.039062 112.839844 73.746094 112.128906 67.292969 C 111.742188 64.496094 104.628906 61.132812 110.820312 62.800781 C 115.121094 63.414062 121.78125 67.328125 124.4375 62.308594 C 124.222656 56.875 118.683594 60.164062 116.09375 58.402344 C 113.285156 57.355469 112.105469 56.480469 108.539062 55.695312 C 101.90625 54.914062 107.476562 50.058594 111.414062 50.257812 C 117.945312 49.933594 115.917969 40.761719 113.15625 37.652344 C 110.390625 31.824219 104.464844 28.671875 98.503906 27.125 C 95.894531 21.691406 93.773438 15.867188 89.949219 11.171875 C 87.285156 8.546875 81.003906 6.171875 78.71875 8.625 C 77.527344 9.019531 73.816406 0.0546875 71.902344 6.066406 Z M 71.902344 6.066406 " fill-opacity="1" fill-rule="nonzero"/></g><g fill="#78b8c6" fill-opacity="1"><g transform="translate(131.152233, 85.739722)"><g><path d="M 14.519531 0 L 16.152344 0 C 21.144531 0 23.867188 -2.722656 23.867188 -7.714844 C 23.777344 -11.433594 23.777344 -15.15625 23.777344 -18.875 L 27.132812 -18.875 C 45.191406 -18.875 56.445312 -28.222656 56.445312 -43.105469 C 56.445312 -56.988281 48.550781 -62.886719 30.128906 -62.886719 L 14.519531 -62.886719 C 9.527344 -62.886719 6.804688 -60.164062 6.804688 -55.175781 C 6.898438 -47.28125 6.988281 -39.382812 6.988281 -31.488281 C 6.988281 -23.503906 6.898438 -15.609375 6.804688 -7.714844 C 6.804688 -2.722656 9.527344 0 14.519531 0 Z M 23.777344 -31.761719 C 23.777344 -40.746094 23.777344 -45.554688 23.867188 -50.363281 L 28.222656 -50.363281 C 35.753906 -50.363281 38.929688 -48.003906 38.929688 -42.378906 C 38.929688 -34.847656 35.390625 -31.761719 26.859375 -31.761719 Z M 23.777344 -31.761719 "/></g></g></g><g fill="#78b8c6" fill-opacity="1"><g transform="translate(186.417428, 85.739722)"><g><path d="M 26.679688 0.90625 C 37.839844 0.90625 44.648438 -2.269531 46.824219 -8.984375 C 48.1875 -13.066406 44.828125 -15.609375 40.109375 -15.609375 C 36.207031 -15.609375 35.84375 -13.066406 32.398438 -10.800781 C 31.125 -10.074219 29.21875 -9.621094 26.769531 -9.621094 C 22.050781 -9.621094 18.601562 -11.886719 18.242188 -21.234375 L 47.1875 -21.234375 C 47.914062 -21.234375 48.460938 -21.78125 48.550781 -22.6875 C 50.273438 -39.566406 43.558594 -51 26.679688 -51 C 10.980469 -51 3.265625 -42.5625 3.265625 -25.863281 C 3.265625 -7.984375 10.4375 0.90625 26.679688 0.90625 Z M 18.332031 -29.765625 C 18.148438 -37.117188 21.234375 -40.65625 25.953125 -40.65625 C 31.21875 -40.65625 33.394531 -37.023438 33.214844 -29.765625 Z M 18.332031 -29.765625 "/></g></g></g><g fill="#78b8c6" fill-opacity="1"><g transform="translate(234.059842, 85.739722)"><g><path d="M 28.765625 -10.980469 C 24.410156 -10.890625 22.503906 -13.339844 22.503906 -18.601562 C 22.503906 -23.320312 22.414062 -28.675781 22.597656 -33.847656 C 22.597656 -35.480469 22.6875 -37.023438 22.6875 -38.660156 L 29.765625 -38.75 C 34.300781 -38.75 36.753906 -40.746094 36.753906 -44.464844 C 36.753906 -48.1875 34.03125 -50.183594 29.039062 -50.183594 L 22.6875 -50.183594 L 22.6875 -58.167969 C 22.6875 -62.980469 19.328125 -65.066406 14.246094 -63.433594 C 9.980469 -62.070312 7.894531 -59.257812 7.894531 -54.722656 C 7.894531 -53.179688 7.984375 -51.726562 7.984375 -50.183594 L 4.175781 -50.183594 C 1.722656 -50.183594 0.273438 -48.097656 0.273438 -44.375 C 0.273438 -40.65625 2.996094 -38.566406 7.984375 -38.566406 L 8.078125 -38.566406 L 8.078125 -33.847656 C 8.078125 -28.039062 8.078125 -22.140625 7.984375 -16.789062 C 7.714844 -3.628906 14.972656 1.089844 26.226562 1.089844 C 28.3125 1.089844 30.402344 0.90625 32.214844 0.542969 C 36.207031 -0.273438 37.75 -3.265625 37.386719 -7.167969 C 37.023438 -10.890625 34.03125 -11.160156 28.765625 -10.980469 Z M 28.765625 -10.980469 "/></g></g></g><g fill="#78b8c6" fill-opacity="1"><g transform="translate(17.899999, 163.999019)"><g><path d="M 47.28125 -56.355469 C 47.28125 -60.621094 44.558594 -62.886719 39.566406 -62.886719 L 14.519531 -62.886719 C 9.527344 -62.886719 6.804688 -60.164062 6.898438 -55.175781 C 6.898438 -47.28125 6.988281 -39.382812 6.988281 -31.488281 C 6.988281 -23.59375 6.898438 -15.699219 6.898438 -7.714844 C 6.804688 -2.722656 9.527344 0 14.519531 0 L 16.152344 0 C 21.144531 0 23.867188 -2.722656 23.777344 -7.714844 C 23.777344 -13.25 23.777344 -18.695312 23.777344 -24.140625 C 27.949219 -24.046875 32.125 -24.046875 36.117188 -23.957031 C 41.109375 -23.957031 43.832031 -26.136719 43.832031 -30.128906 C 43.832031 -34.03125 41.109375 -36.207031 36.117188 -36.207031 C 32.125 -36.117188 27.949219 -36.117188 23.777344 -36.027344 L 23.777344 -49.910156 C 29.128906 -49.820312 34.664062 -49.820312 39.566406 -49.730469 C 44.558594 -49.730469 47.28125 -52.089844 47.28125 -56.355469 Z M 47.28125 -56.355469 "/></g></g></g><g fill="#78b8c6" fill-opacity="1"><g transform="translate(64.090451, 163.999019)"><g><path d="M 12.886719 -56.535156 C 19.601562 -56.535156 22.324219 -58.804688 22.324219 -64.25 C 22.324219 -69.695312 19.601562 -71.960938 12.886719 -71.960938 C 6.171875 -71.960938 3.449219 -69.695312 3.449219 -64.25 C 3.449219 -58.804688 6.171875 -56.535156 12.886719 -56.535156 Z M 13.160156 0 C 18.148438 0 20.78125 -2.722656 20.691406 -7.714844 C 20.691406 -12.886719 20.601562 -17.96875 20.691406 -23.230469 C 20.78125 -28.765625 20.78125 -36.117188 20.78125 -42.46875 C 20.78125 -47.460938 18.058594 -50.183594 13.066406 -50.183594 L 12.976562 -50.183594 C 7.984375 -50.183594 5.261719 -47.460938 5.261719 -42.5625 C 5.355469 -36.84375 5.355469 -28.859375 5.445312 -15.425781 L 5.445312 -7.714844 C 5.445312 -2.722656 8.167969 0 13.160156 0 Z M 13.160156 0 "/></g></g></g><g fill="#78b8c6" fill-opacity="1"><g transform="translate(85.053113, 163.999019)"><g><path d="M 50.457031 -7.804688 C 50.363281 -15.972656 50.183594 -23.59375 50.363281 -29.945312 C 50.726562 -44.921875 45.917969 -51 36.390625 -51 C 29.402344 -51 24.046875 -48.003906 20.601562 -41.652344 L 20.328125 -41.652344 C 20.328125 -43.46875 20.328125 -44.828125 20.328125 -46.007812 C 20.417969 -48.730469 17.695312 -50.273438 12.886719 -50.273438 C 7.984375 -50.273438 5.261719 -47.550781 5.261719 -42.5625 C 5.355469 -36.753906 5.445312 -31.035156 5.445312 -25.046875 C 5.445312 -19.148438 5.355469 -13.519531 5.261719 -7.714844 C 5.261719 -2.722656 7.984375 0 12.976562 0 L 13.519531 0 C 18.511719 0 21.234375 -2.722656 21.234375 -7.714844 C 21.144531 -13.519531 21.054688 -19.148438 21.144531 -25.046875 C 21.144531 -27.585938 21.234375 -30.21875 21.234375 -32.667969 C 22.6875 -35.9375 25.320312 -37.839844 28.765625 -37.933594 C 32.851562 -38.023438 34.9375 -36.027344 34.9375 -30.128906 C 34.9375 -23.867188 34.847656 -16.152344 34.757812 -7.804688 C 34.757812 -2.722656 37.480469 0 42.46875 0 L 42.742188 0 C 47.734375 0 50.457031 -2.722656 50.457031 -7.804688 Z M 50.457031 -7.804688 "/></g></g></g><g fill="#78b8c6" fill-opacity="1"><g transform="translate(135.96244, 163.999019)"><g><path d="M 42.105469 -66.15625 L 41.5625 -66.15625 C 36.570312 -66.15625 33.847656 -63.433594 33.847656 -58.441406 C 33.941406 -53.632812 33.941406 -48.914062 34.03125 -44.195312 C 31.582031 -48.277344 27.585938 -50.910156 22.597656 -50.910156 C 11.886719 -50.910156 3.265625 -41.925781 3.265625 -23.957031 C 3.265625 -4.898438 11.886719 1 22.867188 1 C 29.039062 1 33.121094 -2.085938 35.574219 -5.355469 C 35.84375 -4.445312 36.027344 -3.539062 36.300781 -2.632812 C 36.933594 -0.816406 39.292969 0 43.558594 0 C 47.640625 0 49.820312 -2.722656 49.730469 -7.714844 C 49.640625 -12.886719 49.546875 -17.878906 49.546875 -23.230469 C 49.546875 -35.210938 49.730469 -46.554688 49.820312 -58.441406 C 49.820312 -63.433594 47.097656 -66.15625 42.105469 -66.15625 Z M 27.132812 -11.796875 C 21.324219 -11.796875 17.96875 -15.246094 17.96875 -24.863281 C 17.96875 -36.027344 22.050781 -38.660156 26.769531 -38.660156 C 30.039062 -38.660156 32.941406 -37.386719 34.03125 -33.667969 C 34.03125 -30.21875 34.03125 -26.769531 33.941406 -23.230469 C 33.847656 -20.238281 33.757812 -17.421875 33.757812 -14.519531 C 32.125 -12.703125 30.21875 -11.796875 27.132812 -11.796875 Z M 27.132812 -11.796875 "/></g></g></g><g fill="#78b8c6" fill-opacity="1"><g transform="translate(185.873541, 163.999019)"><g><path d="M 26.679688 0.90625 C 37.839844 0.90625 44.648438 -2.269531 46.824219 -8.984375 C 48.1875 -13.066406 44.828125 -15.609375 40.109375 -15.609375 C 36.207031 -15.609375 35.84375 -13.066406 32.398438 -10.800781 C 31.125 -10.074219 29.21875 -9.621094 26.769531 -9.621094 C 22.050781 -9.621094 18.601562 -11.886719 18.242188 -21.234375 L 47.1875 -21.234375 C 47.914062 -21.234375 48.460938 -21.78125 48.550781 -22.6875 C 50.273438 -39.566406 43.558594 -51 26.679688 -51 C 10.980469 -51 3.265625 -42.5625 3.265625 -25.863281 C 3.265625 -7.984375 10.4375 0.90625 26.679688 0.90625 Z M 18.332031 -29.765625 C 18.148438 -37.117188 21.234375 -40.65625 25.953125 -40.65625 C 31.21875 -40.65625 33.394531 -37.023438 33.214844 -29.765625 Z M 18.332031 -29.765625 "/></g></g></g><g fill="#78b8c6" fill-opacity="1"><g transform="translate(233.515949, 163.999019)"><g><path d="M 34.121094 -50.910156 C 33.578125 -51 32.851562 -51.089844 31.851562 -51.089844 C 25.863281 -51.089844 21.6875 -45.828125 20.238281 -38.386719 L 19.964844 -38.566406 L 19.964844 -44.464844 C 19.964844 -48.277344 17.332031 -50.273438 12.613281 -50.273438 C 7.894531 -50.273438 5.261719 -47.550781 5.261719 -42.5625 C 5.355469 -36.753906 5.445312 -31.125 5.445312 -25.136719 C 5.445312 -19.148438 5.355469 -13.519531 5.261719 -7.714844 C 5.261719 -2.722656 7.984375 0 12.976562 0 L 13.25 0 C 18.332031 0 20.960938 -2.8125 20.78125 -7.894531 C 20.691406 -11.707031 20.601562 -15.425781 20.601562 -19.148438 C 20.601562 -21.054688 20.691406 -23.140625 20.691406 -25.136719 L 20.691406 -27.316406 C 22.324219 -32.214844 25.136719 -34.847656 29.128906 -34.847656 C 30.492188 -34.847656 31.582031 -34.664062 32.761719 -34.300781 C 35.027344 -33.484375 37.839844 -34.757812 39.019531 -39.476562 C 39.566406 -41.5625 39.65625 -43.742188 39.019531 -45.828125 C 37.839844 -49.367188 35.753906 -50.546875 34.121094 -50.910156 Z M 34.121094 -50.910156 "/></g></g></g><g fill="#3d5f66" fill-opacity="1"><g transform="translate(74.676218, 205.280804)"><g><path d="M 5.234375 -2.65625 L 5.234375 -5.515625 C 6.074219 -5.496094 6.914062 -5.496094 7.710938 -5.476562 C 8.8125 -5.476562 9.410156 -5.953125 9.410156 -6.832031 C 9.410156 -7.691406 8.8125 -8.171875 7.710938 -8.171875 C 6.914062 -8.152344 6.074219 -8.152344 5.234375 -8.132812 L 5.234375 -11.1875 C 6.335938 -11.167969 7.453125 -11.167969 8.511719 -11.148438 C 9.609375 -11.148438 10.210938 -11.628906 10.210938 -12.507812 C 10.210938 -13.367188 9.609375 -13.847656 8.511719 -13.847656 L 3.195312 -13.847656 C 2.097656 -13.847656 1.5 -13.246094 1.519531 -12.148438 C 1.519531 -10.410156 1.539062 -8.671875 1.539062 -6.933594 C 1.539062 -5.195312 1.519531 -3.457031 1.519531 -1.699219 C 1.5 -0.597656 2.097656 0 3.195312 0 L 8.710938 0 C 9.8125 0 10.410156 -0.480469 10.410156 -1.359375 C 10.410156 -2.21875 9.8125 -2.699219 8.710938 -2.699219 C 7.59375 -2.675781 6.414062 -2.675781 5.234375 -2.65625 Z M 5.234375 -2.65625 "/></g></g></g><g fill="#3d5f66" fill-opacity="1"><g transform="translate(85.96551, 205.280804)"><g><path d="M 11.109375 -1.71875 C 11.089844 -3.515625 11.050781 -5.195312 11.089844 -6.59375 C 11.167969 -9.890625 10.109375 -11.230469 8.011719 -11.230469 C 6.472656 -11.230469 5.296875 -10.570312 4.535156 -9.171875 L 4.476562 -9.171875 C 4.476562 -9.570312 4.476562 -9.871094 4.476562 -10.128906 C 4.496094 -10.730469 3.894531 -11.070312 2.835938 -11.070312 C 1.757812 -11.070312 1.160156 -10.46875 1.160156 -9.371094 C 1.179688 -8.09375 1.199219 -6.832031 1.199219 -5.515625 C 1.199219 -4.214844 1.179688 -2.976562 1.160156 -1.699219 C 1.160156 -0.597656 1.757812 0 2.855469 0 L 2.976562 0 C 4.074219 0 4.675781 -0.597656 4.675781 -1.699219 C 4.65625 -2.976562 4.636719 -4.214844 4.65625 -5.515625 C 4.65625 -6.074219 4.675781 -6.652344 4.675781 -7.191406 C 4.996094 -7.914062 5.574219 -8.332031 6.335938 -8.351562 C 7.234375 -8.371094 7.691406 -7.933594 7.691406 -6.632812 C 7.691406 -5.253906 7.671875 -3.554688 7.652344 -1.71875 C 7.652344 -0.597656 8.253906 0 9.351562 0 L 9.410156 0 C 10.511719 0 11.109375 -0.597656 11.109375 -1.71875 Z M 11.109375 -1.71875 "/></g></g></g><g fill="#3d5f66" fill-opacity="1"><g transform="translate(98.233872, 205.280804)"><g><path d="M 5.855469 0.199219 C 8.273438 0.199219 9.730469 -0.71875 10.210938 -2.457031 C 10.488281 -3.476562 9.832031 -4.097656 8.871094 -4.097656 C 7.871094 -4.097656 7.734375 -3.515625 7.09375 -2.65625 C 6.855469 -2.359375 6.453125 -2.238281 5.894531 -2.238281 C 4.835938 -2.238281 4.136719 -2.855469 4.136719 -5.476562 C 4.136719 -7.773438 4.617188 -8.570312 5.894531 -8.570312 C 6.59375 -8.570312 6.953125 -8.390625 7.152344 -7.972656 C 7.574219 -6.992188 7.832031 -6.453125 8.871094 -6.453125 C 9.871094 -6.453125 10.53125 -7.113281 10.269531 -8.230469 C 9.8125 -10.171875 8.410156 -11.230469 5.953125 -11.230469 C 2.4375 -11.230469 0.71875 -9.292969 0.71875 -5.476562 C 0.71875 -1.679688 2.296875 0.199219 5.855469 0.199219 Z M 5.855469 0.199219 "/></g></g></g><g fill="#3d5f66" fill-opacity="1"><g transform="translate(109.303366, 205.280804)"><g><path d="M 9.269531 -11.050781 L 9.152344 -11.050781 C 8.050781 -11.050781 7.453125 -10.449219 7.472656 -9.351562 C 7.492188 -7.933594 7.511719 -6.554688 7.472656 -5.113281 C 7.472656 -3.476562 6.832031 -2.65625 5.914062 -2.636719 C 5.113281 -2.617188 4.636719 -3.257812 4.636719 -4.535156 C 4.636719 -6.175781 4.65625 -7.734375 4.675781 -9.351562 C 4.675781 -10.449219 4.074219 -11.050781 2.976562 -11.050781 L 2.855469 -11.050781 C 1.757812 -11.050781 1.160156 -10.449219 1.160156 -9.351562 C 1.179688 -7.511719 1.21875 -5.753906 1.179688 -3.894531 C 1.117188 -0.859375 2.4375 0.21875 4.394531 0.21875 C 5.972656 0.21875 7.113281 -0.539062 7.734375 -1.839844 C 7.773438 -1.519531 7.832031 -1.21875 7.914062 -0.898438 C 8.09375 -0.28125 8.671875 0 9.589844 0 C 10.46875 0 10.96875 -0.597656 10.949219 -1.699219 C 10.949219 -2.835938 10.929688 -3.957031 10.929688 -5.113281 C 10.929688 -6.554688 10.949219 -7.933594 10.96875 -9.351562 C 10.96875 -10.449219 10.371094 -11.050781 9.269531 -11.050781 Z M 9.269531 -11.050781 "/></g></g></g><g fill="#3d5f66" fill-opacity="1"><g transform="translate(121.431861, 205.280804)"><g><path d="M 5.875 0.199219 C 8.332031 0.199219 9.832031 -0.5 10.308594 -1.976562 C 10.609375 -2.878906 9.871094 -3.4375 8.832031 -3.4375 C 7.972656 -3.4375 7.890625 -2.878906 7.132812 -2.378906 C 6.855469 -2.21875 6.433594 -2.117188 5.894531 -2.117188 C 4.855469 -2.117188 4.097656 -2.617188 4.015625 -4.675781 L 10.390625 -4.675781 C 10.550781 -4.675781 10.667969 -4.796875 10.691406 -4.996094 C 11.070312 -8.710938 9.589844 -11.230469 5.875 -11.230469 C 2.417969 -11.230469 0.71875 -9.371094 0.71875 -5.695312 C 0.71875 -1.757812 2.296875 0.199219 5.875 0.199219 Z M 4.035156 -6.554688 C 3.996094 -8.171875 4.675781 -8.953125 5.714844 -8.953125 C 6.875 -8.953125 7.351562 -8.152344 7.3125 -6.554688 Z M 4.035156 -6.554688 "/></g></g></g><g fill="#3d5f66" fill-opacity="1"><g transform="translate(132.980905, 205.280804)"><g><path d="M 11.109375 -1.71875 C 11.089844 -3.515625 11.050781 -5.195312 11.089844 -6.59375 C 11.167969 -9.890625 10.109375 -11.230469 8.011719 -11.230469 C 6.472656 -11.230469 5.296875 -10.570312 4.535156 -9.171875 L 4.476562 -9.171875 C 4.476562 -9.570312 4.476562 -9.871094 4.476562 -10.128906 C 4.496094 -10.730469 3.894531 -11.070312 2.835938 -11.070312 C 1.757812 -11.070312 1.160156 -10.46875 1.160156 -9.371094 C 1.179688 -8.09375 1.199219 -6.832031 1.199219 -5.515625 C 1.199219 -4.214844 1.179688 -2.976562 1.160156 -1.699219 C 1.160156 -0.597656 1.757812 0 2.855469 0 L 2.976562 0 C 4.074219 0 4.675781 -0.597656 4.675781 -1.699219 C 4.65625 -2.976562 4.636719 -4.214844 4.65625 -5.515625 C 4.65625 -6.074219 4.675781 -6.652344 4.675781 -7.191406 C 4.996094 -7.914062 5.574219 -8.332031 6.335938 -8.351562 C 7.234375 -8.371094 7.691406 -7.933594 7.691406 -6.632812 C 7.691406 -5.253906 7.671875 -3.554688 7.652344 -1.71875 C 7.652344 -0.597656 8.253906 0 9.351562 0 L 9.410156 0 C 10.511719 0 11.109375 -0.597656 11.109375 -1.71875 Z M 11.109375 -1.71875 "/></g></g></g><g fill="#3d5f66" fill-opacity="1"><g transform="translate(145.249267, 205.280804)"><g><path d="M 6.335938 -2.417969 C 5.375 -2.398438 4.957031 -2.9375 4.957031 -4.097656 C 4.957031 -5.136719 4.933594 -6.3125 4.976562 -7.453125 C 4.976562 -7.8125 4.996094 -8.152344 4.996094 -8.511719 L 6.554688 -8.53125 C 7.554688 -8.53125 8.09375 -8.972656 8.09375 -9.789062 C 8.09375 -10.609375 7.492188 -11.050781 6.394531 -11.050781 L 4.996094 -11.050781 L 4.996094 -12.808594 C 4.996094 -13.867188 4.257812 -14.328125 3.136719 -13.964844 C 2.199219 -13.667969 1.738281 -13.046875 1.738281 -12.046875 C 1.738281 -11.707031 1.757812 -11.390625 1.757812 -11.050781 L 0.917969 -11.050781 C 0.378906 -11.050781 0.0585938 -10.589844 0.0585938 -9.769531 C 0.0585938 -8.953125 0.660156 -8.492188 1.757812 -8.492188 L 1.777344 -8.492188 L 1.777344 -7.453125 C 1.777344 -6.175781 1.777344 -4.875 1.757812 -3.695312 C 1.699219 -0.800781 3.296875 0.238281 5.773438 0.238281 C 6.234375 0.238281 6.695312 0.199219 7.09375 0.121094 C 7.972656 -0.0585938 8.3125 -0.71875 8.230469 -1.578125 C 8.152344 -2.398438 7.492188 -2.457031 6.335938 -2.417969 Z M 6.335938 -2.417969 "/></g></g></g><g fill="#3d5f66" fill-opacity="1"><g transform="translate(153.841119, 205.280804)"><g><path d="M 7.511719 -11.210938 C 7.394531 -11.230469 7.234375 -11.25 7.011719 -11.25 C 5.695312 -11.25 4.777344 -10.089844 4.457031 -8.453125 L 4.394531 -8.492188 L 4.394531 -9.789062 C 4.394531 -10.628906 3.816406 -11.070312 2.777344 -11.070312 C 1.738281 -11.070312 1.160156 -10.46875 1.160156 -9.371094 C 1.179688 -8.09375 1.199219 -6.855469 1.199219 -5.535156 C 1.199219 -4.214844 1.179688 -2.976562 1.160156 -1.699219 C 1.160156 -0.597656 1.757812 0 2.855469 0 L 2.917969 0 C 4.035156 0 4.617188 -0.621094 4.574219 -1.738281 C 4.554688 -2.578125 4.535156 -3.398438 4.535156 -4.214844 C 4.535156 -4.636719 4.554688 -5.09375 4.554688 -5.535156 L 4.554688 -6.015625 C 4.914062 -7.09375 5.535156 -7.671875 6.414062 -7.671875 C 6.714844 -7.671875 6.953125 -7.632812 7.214844 -7.554688 C 7.710938 -7.371094 8.332031 -7.652344 8.59375 -8.691406 C 8.710938 -9.152344 8.730469 -9.632812 8.59375 -10.089844 C 8.332031 -10.871094 7.871094 -11.128906 7.511719 -11.210938 Z M 7.511719 -11.210938 "/></g></g></g><g fill="#3d5f66" fill-opacity="1"><g transform="translate(162.552856, 205.280804)"><g><path d="M 4.175781 0.199219 C 5.296875 0.199219 6.375 -0.179688 7.171875 -0.960938 C 7.191406 -0.800781 7.214844 -0.640625 7.273438 -0.480469 C 7.351562 -0.160156 7.890625 0 8.910156 0 L 9.089844 0 C 10.171875 0 10.730469 -0.621094 10.667969 -1.738281 C 10.609375 -3.097656 10.609375 -4.835938 10.609375 -7.234375 C 10.609375 -9.910156 9.132812 -11.230469 6.152344 -11.230469 C 3.238281 -11.230469 1.699219 -10.449219 1.238281 -8.890625 C 0.917969 -7.792969 1.738281 -7.152344 2.855469 -7.152344 L 3.058594 -7.152344 C 4.035156 -7.152344 4.117188 -7.691406 4.695312 -8.570312 C 4.933594 -8.929688 5.375 -9.070312 5.894531 -9.070312 C 6.773438 -9.070312 7.171875 -8.632812 7.171875 -7.171875 L 7.171875 -6.492188 C 2.675781 -6.613281 0.621094 -5.316406 0.621094 -2.816406 C 0.621094 -0.71875 2.199219 0.199219 4.175781 0.199219 Z M 5.234375 -2.058594 C 4.296875 -2.058594 3.796875 -2.597656 3.796875 -3.355469 C 3.796875 -4.636719 5.394531 -4.855469 7.214844 -4.894531 L 7.214844 -3.097656 C 6.753906 -2.4375 6.132812 -2.058594 5.234375 -2.058594 Z M 5.234375 -2.058594 "/></g></g></g><g fill="#3d5f66" fill-opacity="1"><g transform="translate(174.181818, 205.280804)"><g/></g></g><g fill="#3d5f66" fill-opacity="1"><g transform="translate(179.17708, 205.280804)"><g><path d="M 4.175781 0.199219 C 5.296875 0.199219 6.375 -0.179688 7.171875 -0.960938 C 7.191406 -0.800781 7.214844 -0.640625 7.273438 -0.480469 C 7.351562 -0.160156 7.890625 0 8.910156 0 L 9.089844 0 C 10.171875 0 10.730469 -0.621094 10.667969 -1.738281 C 10.609375 -3.097656 10.609375 -4.835938 10.609375 -7.234375 C 10.609375 -9.910156 9.132812 -11.230469 6.152344 -11.230469 C 3.238281 -11.230469 1.699219 -10.449219 1.238281 -8.890625 C 0.917969 -7.792969 1.738281 -7.152344 2.855469 -7.152344 L 3.058594 -7.152344 C 4.035156 -7.152344 4.117188 -7.691406 4.695312 -8.570312 C 4.933594 -8.929688 5.375 -9.070312 5.894531 -9.070312 C 6.773438 -9.070312 7.171875 -8.632812 7.171875 -7.171875 L 7.171875 -6.492188 C 2.675781 -6.613281 0.621094 -5.316406 0.621094 -2.816406 C 0.621094 -0.71875 2.199219 0.199219 4.175781 0.199219 Z M 5.234375 -2.058594 C 4.296875 -2.058594 3.796875 -2.597656 3.796875 -3.355469 C 3.796875 -4.636719 5.394531 -4.855469 7.214844 -4.894531 L 7.214844 -3.097656 C 6.753906 -2.4375 6.132812 -2.058594 5.234375 -2.058594 Z M 5.234375 -2.058594 "/></g></g></g><g fill="#3d5f66" fill-opacity="1"><g transform="translate(190.806042, 205.280804)"><g/></g></g><g fill="#3d5f66" fill-opacity="1"><g transform="translate(195.801304, 205.280804)"><g><path d="M 6.335938 -2.417969 C 5.375 -2.398438 4.957031 -2.9375 4.957031 -4.097656 C 4.957031 -5.136719 4.933594 -6.3125 4.976562 -7.453125 C 4.976562 -7.8125 4.996094 -8.152344 4.996094 -8.511719 L 6.554688 -8.53125 C 7.554688 -8.53125 8.09375 -8.972656 8.09375 -9.789062 C 8.09375 -10.609375 7.492188 -11.050781 6.394531 -11.050781 L 4.996094 -11.050781 L 4.996094 -12.808594 C 4.996094 -13.867188 4.257812 -14.328125 3.136719 -13.964844 C 2.199219 -13.667969 1.738281 -13.046875 1.738281 -12.046875 C 1.738281 -11.707031 1.757812 -11.390625 1.757812 -11.050781 L 0.917969 -11.050781 C 0.378906 -11.050781 0.0585938 -10.589844 0.0585938 -9.769531 C 0.0585938 -8.953125 0.660156 -8.492188 1.757812 -8.492188 L 1.777344 -8.492188 L 1.777344 -7.453125 C 1.777344 -6.175781 1.777344 -4.875 1.757812 -3.695312 C 1.699219 -0.800781 3.296875 0.238281 5.773438 0.238281 C 6.234375 0.238281 6.695312 0.199219 7.09375 0.121094 C 7.972656 -0.0585938 8.3125 -0.71875 8.230469 -1.578125 C 8.152344 -2.398438 7.492188 -2.457031 6.335938 -2.417969 Z M 6.335938 -2.417969 "/></g></g></g><g fill="#3d5f66" fill-opacity="1"><g transform="translate(204.393156, 205.280804)"><g><path d="M 9.269531 -11.050781 L 9.152344 -11.050781 C 8.050781 -11.050781 7.453125 -10.449219 7.472656 -9.351562 C 7.492188 -7.933594 7.511719 -6.554688 7.472656 -5.113281 C 7.472656 -3.476562 6.832031 -2.65625 5.914062 -2.636719 C 5.113281 -2.617188 4.636719 -3.257812 4.636719 -4.535156 C 4.636719 -6.175781 4.65625 -7.734375 4.675781 -9.351562 C 4.675781 -10.449219 4.074219 -11.050781 2.976562 -11.050781 L 2.855469 -11.050781 C 1.757812 -11.050781 1.160156 -10.449219 1.160156 -9.351562 C 1.179688 -7.511719 1.21875 -5.753906 1.179688 -3.894531 C 1.117188 -0.859375 2.4375 0.21875 4.394531 0.21875 C 5.972656 0.21875 7.113281 -0.539062 7.734375 -1.839844 C 7.773438 -1.519531 7.832031 -1.21875 7.914062 -0.898438 C 8.09375 -0.28125 8.671875 0 9.589844 0 C 10.46875 0 10.96875 -0.597656 10.949219 -1.699219 C 10.949219 -2.835938 10.929688 -3.957031 10.929688 -5.113281 C 10.929688 -6.554688 10.949219 -7.933594 10.96875 -9.351562 C 10.96875 -10.449219 10.371094 -11.050781 9.269531 -11.050781 Z M 9.269531 -11.050781 "/></g></g></g><g fill="#3d5f66" fill-opacity="1"><g transform="translate(216.521651, 205.280804)"><g/></g></g><g fill="#3d5f66" fill-opacity="1"><g transform="translate(221.516913, 205.280804)"><g><path d="M 17.363281 -1.71875 C 17.34375 -3.515625 17.304688 -5.195312 17.34375 -6.59375 C 17.421875 -9.890625 16.363281 -11.230469 14.265625 -11.230469 C 12.726562 -11.230469 11.550781 -10.570312 10.789062 -9.171875 L 10.730469 -9.171875 C 10.289062 -10.609375 9.351562 -11.230469 7.914062 -11.230469 C 6.375 -11.230469 5.195312 -10.570312 4.4375 -9.171875 L 4.414062 -9.171875 C 4.4375 -9.550781 4.4375 -9.871094 4.457031 -10.128906 C 4.457031 -10.730469 3.835938 -11.070312 2.738281 -11.070312 C 1.636719 -11.070312 1.039062 -10.46875 1.058594 -9.371094 C 1.078125 -8.09375 1.097656 -6.855469 1.097656 -5.535156 C 1.097656 -4.214844 1.078125 -2.976562 1.058594 -1.699219 C 1.039062 -0.597656 1.636719 0 2.738281 0 L 2.878906 0 C 3.976562 0 4.574219 -0.597656 4.554688 -1.699219 C 4.554688 -2.976562 4.535156 -4.214844 4.554688 -5.535156 L 4.554688 -7.191406 C 4.894531 -7.914062 5.476562 -8.332031 6.234375 -8.351562 C 7.132812 -8.371094 7.59375 -7.933594 7.59375 -6.632812 C 7.59375 -5.253906 7.574219 -3.554688 7.554688 -1.71875 C 7.554688 -0.597656 8.152344 0 9.25 0 L 9.3125 0 C 10.410156 0 11.007812 -0.597656 11.007812 -1.71875 C 10.988281 -3.515625 10.949219 -5.195312 10.988281 -6.59375 L 10.988281 -7.332031 C 11.328125 -7.972656 11.867188 -8.332031 12.589844 -8.351562 C 13.488281 -8.371094 13.945312 -7.933594 13.945312 -6.632812 C 13.945312 -5.253906 13.925781 -3.554688 13.90625 -1.71875 C 13.90625 -0.597656 14.507812 0 15.605469 0 L 15.664062 0 C 16.765625 0 17.363281 -0.597656 17.363281 -1.71875 Z M 17.363281 -1.71875 "/></g></g></g><g fill="#3d5f66" fill-opacity="1"><g transform="translate(240.03934, 205.280804)"><g><path d="M 4.175781 0.199219 C 5.296875 0.199219 6.375 -0.179688 7.171875 -0.960938 C 7.191406 -0.800781 7.214844 -0.640625 7.273438 -0.480469 C 7.351562 -0.160156 7.890625 0 8.910156 0 L 9.089844 0 C 10.171875 0 10.730469 -0.621094 10.667969 -1.738281 C 10.609375 -3.097656 10.609375 -4.835938 10.609375 -7.234375 C 10.609375 -9.910156 9.132812 -11.230469 6.152344 -11.230469 C 3.238281 -11.230469 1.699219 -10.449219 1.238281 -8.890625 C 0.917969 -7.792969 1.738281 -7.152344 2.855469 -7.152344 L 3.058594 -7.152344 C 4.035156 -7.152344 4.117188 -7.691406 4.695312 -8.570312 C 4.933594 -8.929688 5.375 -9.070312 5.894531 -9.070312 C 6.773438 -9.070312 7.171875 -8.632812 7.171875 -7.171875 L 7.171875 -6.492188 C 2.675781 -6.613281 0.621094 -5.316406 0.621094 -2.816406 C 0.621094 -0.71875 2.199219 0.199219 4.175781 0.199219 Z M 5.234375 -2.058594 C 4.296875 -2.058594 3.796875 -2.597656 3.796875 -3.355469 C 3.796875 -4.636719 5.394531 -4.855469 7.214844 -4.894531 L 7.214844 -3.097656 C 6.753906 -2.4375 6.132812 -2.058594 5.234375 -2.058594 Z M 5.234375 -2.058594 "/></g></g></g><g fill="#3d5f66" fill-opacity="1"><g transform="translate(251.668302, 205.280804)"><g><path d="M 5.316406 0.238281 C 8.511719 0.238281 10.191406 -1 10.191406 -3.457031 C 10.191406 -7.871094 4.15625 -5.515625 4.15625 -7.953125 C 4.15625 -8.570312 4.476562 -8.929688 5.554688 -8.929688 C 6.132812 -8.929688 6.515625 -8.832031 6.734375 -8.613281 C 7.332031 -7.933594 7.433594 -7.433594 8.371094 -7.433594 L 8.453125 -7.433594 C 9.390625 -7.433594 10.109375 -8.050781 9.789062 -9.132812 C 9.351562 -10.53125 7.953125 -11.230469 5.554688 -11.230469 C 2.417969 -11.230469 0.859375 -10.109375 0.859375 -7.832031 C 0.859375 -3.136719 6.875 -5.59375 6.875 -3.015625 C 6.875 -2.417969 6.433594 -1.976562 5.175781 -1.976562 C 4.515625 -1.976562 4.136719 -2.078125 3.9375 -2.335938 C 3.355469 -3.097656 3.277344 -3.617188 2.316406 -3.617188 L 2.257812 -3.617188 C 1.320312 -3.617188 0.578125 -2.976562 0.9375 -1.878906 C 1.378906 -0.480469 2.738281 0.238281 5.316406 0.238281 Z M 5.316406 0.238281 "/></g></g></g><g fill="#3d5f66" fill-opacity="1"><g transform="translate(262.617912, 205.280804)"><g><path d="M 5.855469 0.199219 C 8.273438 0.199219 9.730469 -0.71875 10.210938 -2.457031 C 10.488281 -3.476562 9.832031 -4.097656 8.871094 -4.097656 C 7.871094 -4.097656 7.734375 -3.515625 7.09375 -2.65625 C 6.855469 -2.359375 6.453125 -2.238281 5.894531 -2.238281 C 4.835938 -2.238281 4.136719 -2.855469 4.136719 -5.476562 C 4.136719 -7.773438 4.617188 -8.570312 5.894531 -8.570312 C 6.59375 -8.570312 6.953125 -8.390625 7.152344 -7.972656 C 7.574219 -6.992188 7.832031 -6.453125 8.871094 -6.453125 C 9.871094 -6.453125 10.53125 -7.113281 10.269531 -8.230469 C 9.8125 -10.171875 8.410156 -11.230469 5.953125 -11.230469 C 2.4375 -11.230469 0.71875 -9.292969 0.71875 -5.476562 C 0.71875 -1.679688 2.296875 0.199219 5.855469 0.199219 Z M 5.855469 0.199219 "/></g></g></g><g fill="#3d5f66" fill-opacity="1"><g transform="translate(273.687406, 205.280804)"><g><path d="M 5.855469 0.238281 C 9.25 0.238281 10.910156 -1.660156 10.910156 -5.496094 C 10.910156 -9.3125 9.25 -11.230469 5.855469 -11.230469 C 2.417969 -11.230469 0.71875 -9.3125 0.71875 -5.496094 C 0.71875 -1.660156 2.417969 0.238281 5.855469 0.238281 Z M 5.855469 -2.199219 C 4.835938 -2.199219 4.136719 -2.835938 4.136719 -5.496094 C 4.136719 -7.933594 4.59375 -8.792969 5.855469 -8.792969 C 7.011719 -8.792969 7.492188 -7.933594 7.492188 -5.496094 C 7.492188 -2.835938 6.792969 -2.199219 5.855469 -2.199219 Z M 5.855469 -2.199219 "/></g></g></g><g fill="#3d5f66" fill-opacity="1"><g transform="translate(285.316368, 205.280804)"><g><path d="M 6.335938 -2.417969 C 5.375 -2.398438 4.957031 -2.9375 4.957031 -4.097656 C 4.957031 -5.136719 4.933594 -6.3125 4.976562 -7.453125 C 4.976562 -7.8125 4.996094 -8.152344 4.996094 -8.511719 L 6.554688 -8.53125 C 7.554688 -8.53125 8.09375 -8.972656 8.09375 -9.789062 C 8.09375 -10.609375 7.492188 -11.050781 6.394531 -11.050781 L 4.996094 -11.050781 L 4.996094 -12.808594 C 4.996094 -13.867188 4.257812 -14.328125 3.136719 -13.964844 C 2.199219 -13.667969 1.738281 -13.046875 1.738281 -12.046875 C 1.738281 -11.707031 1.757812 -11.390625 1.757812 -11.050781 L 0.917969 -11.050781 C 0.378906 -11.050781 0.0585938 -10.589844 0.0585938 -9.769531 C 0.0585938 -8.953125 0.660156 -8.492188 1.757812 -8.492188 L 1.777344 -8.492188 L 1.777344 -7.453125 C 1.777344 -6.175781 1.777344 -4.875 1.757812 -3.695312 C 1.699219 -0.800781 3.296875 0.238281 5.773438 0.238281 C 6.234375 0.238281 6.695312 0.199219 7.09375 0.121094 C 7.972656 -0.0585938 8.3125 -0.71875 8.230469 -1.578125 C 8.152344 -2.398438 7.492188 -2.457031 6.335938 -2.417969 Z M 6.335938 -2.417969 "/></g></g></g><g fill="#3d5f66" fill-opacity="1"><g transform="translate(293.908208, 205.280804)"><g><path d="M 4.175781 0.199219 C 5.296875 0.199219 6.375 -0.179688 7.171875 -0.960938 C 7.191406 -0.800781 7.214844 -0.640625 7.273438 -0.480469 C 7.351562 -0.160156 7.890625 0 8.910156 0 L 9.089844 0 C 10.171875 0 10.730469 -0.621094 10.667969 -1.738281 C 10.609375 -3.097656 10.609375 -4.835938 10.609375 -7.234375 C 10.609375 -9.910156 9.132812 -11.230469 6.152344 -11.230469 C 3.238281 -11.230469 1.699219 -10.449219 1.238281 -8.890625 C 0.917969 -7.792969 1.738281 -7.152344 2.855469 -7.152344 L 3.058594 -7.152344 C 4.035156 -7.152344 4.117188 -7.691406 4.695312 -8.570312 C 4.933594 -8.929688 5.375 -9.070312 5.894531 -9.070312 C 6.773438 -9.070312 7.171875 -8.632812 7.171875 -7.171875 L 7.171875 -6.492188 C 2.675781 -6.613281 0.621094 -5.316406 0.621094 -2.816406 C 0.621094 -0.71875 2.199219 0.199219 4.175781 0.199219 Z M 5.234375 -2.058594 C 4.296875 -2.058594 3.796875 -2.597656 3.796875 -3.355469 C 3.796875 -4.636719 5.394531 -4.855469 7.214844 -4.894531 L 7.214844 -3.097656 C 6.753906 -2.4375 6.132812 -2.058594 5.234375 -2.058594 Z M 5.234375 -2.058594 "/></g></g></g></svg>