<svg xmlns="http://www.w3.org/2000/svg" xmlns:xlink="http://www.w3.org/1999/xlink" width="500" zoomAndPan="magnify" viewBox="0 0 375 374.999991" height="500" preserveAspectRatio="xMidYMid meet" version="1.0"><defs><g/><clipPath id="id1"><path d="M 252.941406 136.84375 L 326.441406 136.84375 L 326.441406 210.34375 L 252.941406 210.34375 Z M 252.941406 136.84375 " clip-rule="nonzero"/></clipPath><clipPath id="id2"><path d="M 239.898438 145.019531 L 312.648438 145.019531 L 312.648438 213.269531 L 239.898438 213.269531 Z M 239.898438 145.019531 " clip-rule="nonzero"/></clipPath><clipPath id="id3"><path d="M 61 114 L 146.484375 114 L 146.484375 186 L 61 186 Z M 61 114 " clip-rule="nonzero"/></clipPath></defs><g clip-path="url(#id1)"><path fill="#78b8c6" d="M 289.691406 136.84375 C 269.394531 136.84375 252.941406 153.296875 252.941406 173.59375 C 252.941406 193.890625 269.394531 210.34375 289.691406 210.34375 C 309.988281 210.34375 326.441406 193.890625 326.441406 173.59375 C 326.441406 153.296875 309.988281 136.84375 289.691406 136.84375 " fill-opacity="1" fill-rule="nonzero"/></g><g clip-path="url(#id2)"><path fill="#f1ece9" d="M 252.3125 145.019531 C 246.546875 145.019531 239.945312 154.933594 239.945312 158.980469 C 239.945312 162.222656 242.699219 164.921875 245.867188 166.101562 C 246.039062 165.835938 246.222656 165.574219 246.421875 165.324219 C 246.222656 164.238281 246.128906 163.152344 246.128906 162.082031 C 246.128906 155.164062 249.902344 149.117188 255.5 145.921875 C 254.570312 145.347656 253.472656 145.019531 252.3125 145.019531 Z M 277.046875 145.019531 C 275.886719 145.019531 274.789062 145.347656 273.863281 145.921875 C 279.457031 149.117188 283.230469 155.164062 283.230469 162.082031 C 283.230469 163.152344 283.140625 164.238281 282.9375 165.324219 C 283.140625 165.574219 283.324219 165.835938 283.492188 166.101562 C 286.664062 164.921875 289.414062 162.222656 289.414062 158.980469 C 289.414062 154.933594 282.8125 145.019531 277.046875 145.019531 Z M 264.679688 146.570312 C 256.148438 146.570312 249.222656 153.519531 249.222656 162.082031 C 249.222656 163.496094 249.421875 164.863281 249.777344 166.164062 C 247.519531 168.539062 246.128906 171.730469 246.128906 175.269531 C 246.128906 182.542969 252.019531 188.453125 259.269531 188.453125 L 263.132812 188.453125 L 263.132812 178.699219 C 261.324219 177.675781 260.042969 175.160156 260.042969 174.492188 C 260.042969 173.640625 262.113281 172.941406 264.679688 172.941406 C 267.246094 172.941406 269.316406 173.640625 269.316406 174.492188 C 269.316406 175.160156 268.035156 177.675781 266.226562 178.699219 L 266.226562 188.453125 L 270.089844 188.453125 C 277.339844 188.453125 283.230469 182.542969 283.230469 175.269531 C 283.230469 171.730469 281.839844 168.539062 279.582031 166.164062 C 279.9375 164.863281 280.140625 163.496094 280.140625 162.082031 C 280.140625 153.519531 273.214844 146.570312 264.679688 146.570312 Z M 259.269531 163.632812 C 260.554688 163.632812 261.589844 164.675781 261.589844 165.960938 C 261.589844 167.25 260.554688 168.289062 259.269531 168.289062 C 257.988281 168.289062 256.949219 167.25 256.949219 165.960938 C 256.949219 164.675781 257.988281 163.632812 259.269531 163.632812 Z M 270.089844 163.632812 C 271.375 163.632812 272.410156 164.675781 272.410156 165.960938 C 272.410156 167.25 271.375 168.289062 270.089844 168.289062 C 268.808594 168.289062 267.773438 167.25 267.773438 165.960938 C 267.773438 164.675781 268.808594 163.632812 270.089844 163.632812 Z M 306.589844 172.957031 C 306.1875 172.910156 305.769531 173.019531 305.460938 173.285156 L 298.410156 178.929688 C 296.957031 178.445312 293.804688 177.59375 289.414062 177.59375 C 288.222656 177.59375 287.144531 177.65625 286.136719 177.765625 C 284.933594 185.566406 278.191406 191.554688 270.089844 191.554688 L 267.757812 191.554688 C 267 193.960938 266.273438 197.511719 266.226562 202.398438 C 266.226562 202.675781 266.304688 202.957031 266.445312 203.1875 C 266.675781 203.609375 272.503906 213.269531 289.414062 213.269531 C 306.328125 213.269531 312.152344 203.609375 312.386719 203.1875 C 312.523438 202.957031 312.601562 202.675781 312.601562 202.398438 C 312.539062 194.75 310.792969 190.378906 309.820312 188.546875 C 310.390625 187.601562 311.058594 186.03125 311.058594 183.800781 C 311.058594 177.890625 307.761719 173.703125 307.625 173.53125 C 307.375 173.207031 306.992188 173.003906 306.589844 172.957031 Z M 284.003906 191.554688 C 285.285156 191.554688 286.324219 192.59375 286.324219 193.882812 C 286.324219 195.167969 285.285156 196.207031 284.003906 196.207031 C 282.722656 196.207031 281.683594 195.167969 281.683594 193.882812 C 281.683594 192.59375 282.722656 191.554688 284.003906 191.554688 Z M 294.824219 191.554688 C 296.109375 191.554688 297.144531 192.59375 297.144531 193.882812 C 297.144531 195.167969 296.109375 196.207031 294.824219 196.207031 C 293.542969 196.207031 292.507812 195.167969 292.507812 193.882812 C 292.507812 192.59375 293.542969 191.554688 294.824219 191.554688 Z M 289.414062 197.757812 C 291.980469 197.757812 294.050781 198.457031 294.050781 199.3125 C 294.050781 199.855469 292.832031 201.546875 291.550781 202.742188 C 292.089844 203.328125 292.9375 203.964844 294.050781 203.964844 L 294.050781 207.066406 C 291.949219 207.066406 290.402344 206.011719 289.414062 204.988281 C 288.425781 206.011719 286.878906 207.066406 284.777344 207.066406 L 284.777344 203.964844 C 285.890625 203.964844 286.738281 203.328125 287.28125 202.742188 C 285.996094 201.546875 284.777344 199.855469 284.777344 199.3125 C 284.777344 198.457031 286.847656 197.757812 289.414062 197.757812 Z M 289.414062 197.757812 " fill-opacity="1" fill-rule="nonzero"/></g><g clip-path="url(#id3)"><path fill="#78b8c6" d="M 108.46875 116.347656 C 105.40625 126.179688 118.785156 132.378906 117.757812 135.675781 C 112.421875 137.730469 106.515625 134.722656 100.90625 136.378906 C 96.3125 136.074219 91.8125 137.203125 87.710938 139.21875 C 82.78125 140.8125 79.542969 144.976562 75.773438 148.238281 C 72.992188 149.496094 72.167969 153.230469 70.308594 154.648438 C 67.359375 154.234375 60.25 154.398438 63.910156 159.726562 C 64.890625 161.636719 68.523438 164.804688 70.003906 163.390625 C 68.09375 165.683594 66.175781 164.527344 64.9375 167.34375 C 63.25 170.707031 62.894531 174.664062 61.316406 177.984375 C 60.890625 180.359375 61.519531 186.9375 64.496094 185.445312 C 70.335938 181.84375 65.894531 169.683594 79.976562 170.867188 C 83.644531 170.519531 86.230469 167.28125 89.039062 165.183594 C 91.222656 164.515625 93.847656 162.941406 95.710938 161.90625 C 99.894531 159.660156 114.535156 157.175781 115.816406 157.925781 C 120.144531 159.152344 124.847656 158.71875 129.085938 160.476562 C 131.257812 161.644531 138.074219 165.03125 137.558594 160.390625 C 137.28125 158.378906 132.136719 155.957031 136.613281 157.160156 C 139.726562 157.601562 144.542969 160.417969 146.460938 156.804688 C 146.308594 152.898438 142.300781 155.261719 140.429688 153.996094 C 138.394531 153.242188 137.542969 152.613281 134.964844 152.046875 C 130.167969 151.488281 134.195312 147.992188 137.042969 148.136719 C 141.765625 147.902344 140.300781 141.304688 138.300781 139.070312 C 136.300781 134.875 132.019531 132.609375 127.707031 131.496094 C 125.820312 127.585938 124.285156 123.394531 121.519531 120.015625 C 119.589844 118.128906 115.046875 116.421875 113.394531 118.1875 C 112.53125 118.46875 109.851562 112.023438 108.464844 116.34375 Z M 108.46875 116.347656 " fill-opacity="1" fill-rule="nonzero"/></g><g fill="#78b8c6" fill-opacity="1"><g transform="translate(150.836779, 173.66388)"><g><path d="M 10.445312 0 L 11.621094 0 C 15.210938 0 17.171875 -1.957031 17.171875 -5.550781 C 17.105469 -8.226562 17.105469 -10.902344 17.105469 -13.578125 L 19.519531 -13.578125 C 32.511719 -13.578125 40.609375 -20.304688 40.609375 -31.011719 C 40.609375 -41 34.929688 -45.242188 21.675781 -45.242188 L 10.445312 -45.242188 C 6.855469 -45.242188 4.898438 -43.285156 4.898438 -39.695312 C 4.960938 -34.015625 5.027344 -28.335938 5.027344 -22.65625 C 5.027344 -16.910156 4.960938 -11.230469 4.898438 -5.550781 C 4.898438 -1.957031 6.855469 0 10.445312 0 Z M 17.105469 -22.851562 C 17.105469 -29.3125 17.105469 -32.773438 17.171875 -36.234375 L 20.304688 -36.234375 C 25.722656 -36.234375 28.007812 -34.535156 28.007812 -30.488281 C 28.007812 -25.070312 25.460938 -22.851562 19.324219 -22.851562 Z M 17.105469 -22.851562 "/></g></g></g><g fill="#78b8c6" fill-opacity="1"><g transform="translate(190.59675, 173.66388)"><g><path d="M 19.195312 0.652344 C 27.226562 0.652344 32.121094 -1.632812 33.6875 -6.464844 C 34.667969 -9.402344 32.25 -11.230469 28.855469 -11.230469 C 26.050781 -11.230469 25.789062 -9.402344 23.308594 -7.769531 C 22.394531 -7.246094 21.023438 -6.921875 19.257812 -6.921875 C 15.863281 -6.921875 13.382812 -8.550781 13.121094 -15.277344 L 33.949219 -15.277344 C 34.472656 -15.277344 34.863281 -15.667969 34.929688 -16.320312 C 36.167969 -28.464844 31.339844 -36.691406 19.195312 -36.691406 C 7.898438 -36.691406 2.351562 -30.621094 2.351562 -18.605469 C 2.351562 -5.746094 7.507812 0.652344 19.195312 0.652344 Z M 13.1875 -21.414062 C 13.058594 -26.703125 15.277344 -29.25 18.671875 -29.25 C 22.457031 -29.25 24.027344 -26.636719 23.894531 -21.414062 Z M 13.1875 -21.414062 "/></g></g></g><g fill="#78b8c6" fill-opacity="1"><g transform="translate(224.872591, 173.66388)"><g><path d="M 20.695312 -7.898438 C 17.5625 -7.835938 16.191406 -9.597656 16.191406 -13.382812 C 16.191406 -16.777344 16.125 -20.628906 16.257812 -24.351562 C 16.257812 -25.527344 16.320312 -26.636719 16.320312 -27.8125 L 21.414062 -27.878906 C 24.679688 -27.878906 26.441406 -29.3125 26.441406 -31.992188 C 26.441406 -34.667969 24.484375 -36.105469 20.890625 -36.105469 L 16.320312 -36.105469 L 16.320312 -41.847656 C 16.320312 -45.308594 13.90625 -46.8125 10.25 -45.636719 C 7.179688 -44.65625 5.679688 -42.632812 5.679688 -39.367188 C 5.679688 -38.257812 5.746094 -37.214844 5.746094 -36.105469 L 3.003906 -36.105469 C 1.242188 -36.105469 0.195312 -34.601562 0.195312 -31.925781 C 0.195312 -29.25 2.15625 -27.746094 5.746094 -27.746094 L 5.8125 -27.746094 L 5.8125 -24.351562 C 5.8125 -20.171875 5.8125 -15.929688 5.746094 -12.078125 C 5.550781 -2.613281 10.773438 0.785156 18.867188 0.785156 C 20.371094 0.785156 21.871094 0.652344 23.175781 0.390625 C 26.050781 -0.195312 27.160156 -2.351562 26.898438 -5.15625 C 26.636719 -7.835938 24.484375 -8.03125 20.695312 -7.898438 Z M 20.695312 -7.898438 "/></g></g></g><g fill="#78b8c6" fill-opacity="1"><g transform="translate(69.358634, 229.96672)"><g><path d="M 34.015625 -40.542969 C 34.015625 -43.613281 32.054688 -45.242188 28.464844 -45.242188 L 10.445312 -45.242188 C 6.855469 -45.242188 4.898438 -43.285156 4.960938 -39.695312 C 4.960938 -34.015625 5.027344 -28.335938 5.027344 -22.65625 C 5.027344 -16.976562 4.960938 -11.292969 4.960938 -5.550781 C 4.898438 -1.957031 6.855469 0 10.445312 0 L 11.621094 0 C 15.210938 0 17.171875 -1.957031 17.105469 -5.550781 C 17.105469 -9.53125 17.105469 -13.449219 17.105469 -17.367188 C 20.109375 -17.300781 23.113281 -17.300781 25.984375 -17.234375 C 29.574219 -17.234375 31.535156 -18.804688 31.535156 -21.675781 C 31.535156 -24.484375 29.574219 -26.050781 25.984375 -26.050781 C 23.113281 -25.984375 20.109375 -25.984375 17.105469 -25.917969 L 17.105469 -35.90625 C 20.957031 -35.84375 24.941406 -35.84375 28.464844 -35.777344 C 32.054688 -35.777344 34.015625 -37.476562 34.015625 -40.542969 Z M 34.015625 -40.542969 "/></g></g></g><g fill="#78b8c6" fill-opacity="1"><g transform="translate(102.589876, 229.96672)"><g><path d="M 9.269531 -40.675781 C 14.101562 -40.675781 16.0625 -42.304688 16.0625 -46.222656 C 16.0625 -50.140625 14.101562 -51.773438 9.269531 -51.773438 C 4.441406 -51.773438 2.480469 -50.140625 2.480469 -46.222656 C 2.480469 -42.304688 4.441406 -40.675781 9.269531 -40.675781 Z M 9.464844 0 C 13.058594 0 14.949219 -1.957031 14.886719 -5.550781 C 14.886719 -9.269531 14.820312 -12.925781 14.886719 -16.714844 C 14.949219 -20.695312 14.949219 -25.984375 14.949219 -30.554688 C 14.949219 -34.144531 12.992188 -36.105469 9.402344 -36.105469 L 9.335938 -36.105469 C 5.746094 -36.105469 3.785156 -34.144531 3.785156 -30.621094 C 3.851562 -26.507812 3.851562 -20.761719 3.917969 -11.097656 L 3.917969 -5.550781 C 3.917969 -1.957031 5.875 0 9.464844 0 Z M 9.464844 0 "/></g></g></g><g fill="#78b8c6" fill-opacity="1"><g transform="translate(117.671246, 229.96672)"><g><path d="M 36.300781 -5.613281 C 36.234375 -11.492188 36.105469 -16.976562 36.234375 -21.542969 C 36.496094 -32.316406 33.035156 -36.691406 26.179688 -36.691406 C 21.152344 -36.691406 17.300781 -34.535156 14.820312 -29.96875 L 14.625 -29.96875 C 14.625 -31.273438 14.625 -32.25 14.625 -33.101562 C 14.691406 -35.058594 12.730469 -36.167969 9.269531 -36.167969 C 5.746094 -36.167969 3.785156 -34.210938 3.785156 -30.621094 C 3.851562 -26.441406 3.917969 -22.328125 3.917969 -18.019531 C 3.917969 -13.777344 3.851562 -9.726562 3.785156 -5.550781 C 3.785156 -1.957031 5.746094 0 9.335938 0 L 9.726562 0 C 13.320312 0 15.277344 -1.957031 15.277344 -5.550781 C 15.210938 -9.726562 15.148438 -13.777344 15.210938 -18.019531 C 15.210938 -19.847656 15.277344 -21.742188 15.277344 -23.503906 C 16.320312 -25.855469 18.214844 -27.226562 20.695312 -27.289062 C 23.632812 -27.355469 25.136719 -25.917969 25.136719 -21.675781 C 25.136719 -17.171875 25.070312 -11.621094 25.003906 -5.613281 C 25.003906 -1.957031 26.964844 0 30.554688 0 L 30.75 0 C 34.339844 0 36.300781 -1.957031 36.300781 -5.613281 Z M 36.300781 -5.613281 "/></g></g></g><g fill="#78b8c6" fill-opacity="1"><g transform="translate(154.297433, 229.96672)"><g><path d="M 30.292969 -47.59375 L 29.902344 -47.59375 C 26.3125 -47.59375 24.351562 -45.636719 24.351562 -42.046875 C 24.417969 -38.585938 24.417969 -35.191406 24.484375 -31.796875 C 22.71875 -34.734375 19.847656 -36.625 16.257812 -36.625 C 8.550781 -36.625 2.351562 -30.164062 2.351562 -17.234375 C 2.351562 -3.527344 8.550781 0.71875 16.453125 0.71875 C 20.890625 0.71875 23.828125 -1.5 25.59375 -3.851562 C 25.789062 -3.199219 25.917969 -2.546875 26.113281 -1.894531 C 26.570312 -0.585938 28.269531 0 31.339844 0 C 34.277344 0 35.84375 -1.957031 35.777344 -5.550781 C 35.710938 -9.269531 35.648438 -12.863281 35.648438 -16.714844 C 35.648438 -25.332031 35.777344 -33.492188 35.84375 -42.046875 C 35.84375 -45.636719 33.882812 -47.59375 30.292969 -47.59375 Z M 19.519531 -8.488281 C 15.34375 -8.488281 12.925781 -10.96875 12.925781 -17.890625 C 12.925781 -25.917969 15.863281 -27.8125 19.257812 -27.8125 C 21.609375 -27.8125 23.699219 -26.898438 24.484375 -24.222656 C 24.484375 -21.742188 24.484375 -19.257812 24.417969 -16.714844 C 24.351562 -14.558594 24.285156 -12.535156 24.285156 -10.445312 C 23.113281 -9.140625 21.742188 -8.488281 19.519531 -8.488281 Z M 19.519531 -8.488281 "/></g></g></g><g fill="#78b8c6" fill-opacity="1"><g transform="translate(190.205457, 229.96672)"><g><path d="M 19.195312 0.652344 C 27.226562 0.652344 32.121094 -1.632812 33.6875 -6.464844 C 34.667969 -9.402344 32.25 -11.230469 28.855469 -11.230469 C 26.050781 -11.230469 25.789062 -9.402344 23.308594 -7.769531 C 22.394531 -7.246094 21.023438 -6.921875 19.257812 -6.921875 C 15.863281 -6.921875 13.382812 -8.550781 13.121094 -15.277344 L 33.949219 -15.277344 C 34.472656 -15.277344 34.863281 -15.667969 34.929688 -16.320312 C 36.167969 -28.464844 31.339844 -36.691406 19.195312 -36.691406 C 7.898438 -36.691406 2.351562 -30.621094 2.351562 -18.605469 C 2.351562 -5.746094 7.507812 0.652344 19.195312 0.652344 Z M 13.1875 -21.414062 C 13.058594 -26.703125 15.277344 -29.25 18.671875 -29.25 C 22.457031 -29.25 24.027344 -26.636719 23.894531 -21.414062 Z M 13.1875 -21.414062 "/></g></g></g><g fill="#78b8c6" fill-opacity="1"><g transform="translate(224.481293, 229.96672)"><g><path d="M 24.546875 -36.625 C 24.15625 -36.691406 23.632812 -36.757812 22.914062 -36.757812 C 18.605469 -36.757812 15.605469 -32.96875 14.558594 -27.617188 L 14.363281 -27.746094 L 14.363281 -31.992188 C 14.363281 -34.734375 12.46875 -36.167969 9.074219 -36.167969 C 5.679688 -36.167969 3.785156 -34.210938 3.785156 -30.621094 C 3.851562 -26.441406 3.917969 -22.394531 3.917969 -18.085938 C 3.917969 -13.777344 3.851562 -9.726562 3.785156 -5.550781 C 3.785156 -1.957031 5.746094 0 9.335938 0 L 9.53125 0 C 13.1875 0 15.082031 -2.023438 14.949219 -5.679688 C 14.886719 -8.421875 14.820312 -11.097656 14.820312 -13.777344 C 14.820312 -15.148438 14.886719 -16.648438 14.886719 -18.085938 L 14.886719 -19.652344 C 16.0625 -23.175781 18.085938 -25.070312 20.957031 -25.070312 C 21.9375 -25.070312 22.71875 -24.941406 23.570312 -24.679688 C 25.199219 -24.089844 27.226562 -25.003906 28.074219 -28.398438 C 28.464844 -29.902344 28.53125 -31.46875 28.074219 -32.96875 C 27.226562 -35.515625 25.722656 -36.363281 24.546875 -36.625 Z M 24.546875 -36.625 "/></g></g></g><g fill="#3d5f66" fill-opacity="1"><g transform="translate(110.2057, 259.666477)"><g><path d="M 3.765625 -1.910156 L 3.765625 -3.96875 C 4.371094 -3.953125 4.972656 -3.953125 5.546875 -3.9375 C 6.339844 -3.9375 6.769531 -4.285156 6.769531 -4.917969 C 6.769531 -5.535156 6.339844 -5.878906 5.546875 -5.878906 C 4.972656 -5.863281 4.371094 -5.863281 3.765625 -5.851562 L 3.765625 -8.050781 C 4.558594 -8.035156 5.363281 -8.035156 6.125 -8.019531 C 6.914062 -8.019531 7.347656 -8.367188 7.347656 -9 C 7.347656 -9.617188 6.914062 -9.960938 6.125 -9.960938 L 2.300781 -9.960938 C 1.507812 -9.960938 1.078125 -9.53125 1.09375 -8.738281 C 1.09375 -7.488281 1.105469 -6.238281 1.105469 -4.988281 C 1.105469 -3.738281 1.09375 -2.488281 1.09375 -1.222656 C 1.078125 -0.429688 1.507812 0 2.300781 0 L 6.269531 0 C 7.058594 0 7.488281 -0.34375 7.488281 -0.976562 C 7.488281 -1.59375 7.058594 -1.941406 6.269531 -1.941406 C 5.460938 -1.925781 4.613281 -1.925781 3.765625 -1.910156 Z M 3.765625 -1.910156 "/></g></g></g><g fill="#3d5f66" fill-opacity="1"><g transform="translate(118.327665, 259.666477)"><g><path d="M 7.992188 -1.234375 C 7.976562 -2.53125 7.949219 -3.738281 7.976562 -4.742188 C 8.035156 -7.117188 7.273438 -8.078125 5.765625 -8.078125 C 4.65625 -8.078125 3.808594 -7.605469 3.261719 -6.597656 L 3.21875 -6.597656 C 3.21875 -6.886719 3.21875 -7.101562 3.21875 -7.289062 C 3.234375 -7.71875 2.804688 -7.964844 2.042969 -7.964844 C 1.265625 -7.964844 0.832031 -7.53125 0.832031 -6.742188 C 0.847656 -5.820312 0.863281 -4.917969 0.863281 -3.96875 C 0.863281 -3.03125 0.847656 -2.140625 0.832031 -1.222656 C 0.832031 -0.429688 1.265625 0 2.054688 0 L 2.140625 0 C 2.933594 0 3.363281 -0.429688 3.363281 -1.222656 C 3.347656 -2.140625 3.335938 -3.03125 3.347656 -3.96875 C 3.347656 -4.371094 3.363281 -4.785156 3.363281 -5.175781 C 3.59375 -5.691406 4.011719 -5.996094 4.558594 -6.007812 C 5.203125 -6.023438 5.535156 -5.707031 5.535156 -4.773438 C 5.535156 -3.78125 5.519531 -2.558594 5.503906 -1.234375 C 5.503906 -0.429688 5.9375 0 6.726562 0 L 6.769531 0 C 7.5625 0 7.992188 -0.429688 7.992188 -1.234375 Z M 7.992188 -1.234375 "/></g></g></g><g fill="#3d5f66" fill-opacity="1"><g transform="translate(127.15401, 259.666477)"><g><path d="M 4.210938 0.144531 C 5.953125 0.144531 7 -0.515625 7.347656 -1.769531 C 7.546875 -2.5 7.074219 -2.945312 6.382812 -2.945312 C 5.664062 -2.945312 5.5625 -2.53125 5.101562 -1.910156 C 4.929688 -1.695312 4.644531 -1.609375 4.242188 -1.609375 C 3.480469 -1.609375 2.976562 -2.054688 2.976562 -3.9375 C 2.976562 -5.59375 3.320312 -6.167969 4.242188 -6.167969 C 4.742188 -6.167969 5.003906 -6.039062 5.144531 -5.734375 C 5.449219 -5.03125 5.636719 -4.644531 6.382812 -4.644531 C 7.101562 -4.644531 7.574219 -5.117188 7.390625 -5.921875 C 7.058594 -7.316406 6.050781 -8.078125 4.285156 -8.078125 C 1.753906 -8.078125 0.515625 -6.683594 0.515625 -3.9375 C 0.515625 -1.207031 1.652344 0.144531 4.210938 0.144531 Z M 4.210938 0.144531 "/></g></g></g><g fill="#3d5f66" fill-opacity="1"><g transform="translate(135.117843, 259.666477)"><g><path d="M 6.671875 -7.949219 L 6.582031 -7.949219 C 5.792969 -7.949219 5.363281 -7.519531 5.375 -6.726562 C 5.390625 -5.707031 5.40625 -4.714844 5.375 -3.679688 C 5.375 -2.5 4.917969 -1.910156 4.253906 -1.898438 C 3.679688 -1.882812 3.335938 -2.34375 3.335938 -3.261719 C 3.335938 -4.441406 3.347656 -5.5625 3.363281 -6.726562 C 3.363281 -7.519531 2.933594 -7.949219 2.140625 -7.949219 L 2.054688 -7.949219 C 1.265625 -7.949219 0.832031 -7.519531 0.832031 -6.726562 C 0.847656 -5.40625 0.875 -4.140625 0.847656 -2.804688 C 0.804688 -0.617188 1.753906 0.15625 3.164062 0.15625 C 4.296875 0.15625 5.117188 -0.386719 5.5625 -1.324219 C 5.59375 -1.09375 5.636719 -0.875 5.691406 -0.648438 C 5.820312 -0.203125 6.238281 0 6.898438 0 C 7.53125 0 7.890625 -0.429688 7.878906 -1.222656 C 7.878906 -2.042969 7.863281 -2.847656 7.863281 -3.679688 C 7.863281 -4.714844 7.878906 -5.707031 7.890625 -6.726562 C 7.890625 -7.519531 7.460938 -7.949219 6.671875 -7.949219 Z M 6.671875 -7.949219 "/></g></g></g><g fill="#3d5f66" fill-opacity="1"><g transform="translate(143.843563, 259.666477)"><g><path d="M 4.226562 0.144531 C 5.996094 0.144531 7.074219 -0.359375 7.417969 -1.421875 C 7.632812 -2.070312 7.101562 -2.472656 6.355469 -2.472656 C 5.734375 -2.472656 5.679688 -2.070312 5.132812 -1.710938 C 4.929688 -1.59375 4.628906 -1.523438 4.242188 -1.523438 C 3.492188 -1.523438 2.945312 -1.882812 2.890625 -3.363281 L 7.476562 -3.363281 C 7.589844 -3.363281 7.675781 -3.449219 7.691406 -3.59375 C 7.964844 -6.269531 6.898438 -8.078125 4.226562 -8.078125 C 1.738281 -8.078125 0.515625 -6.742188 0.515625 -4.097656 C 0.515625 -1.265625 1.652344 0.144531 4.226562 0.144531 Z M 2.902344 -4.714844 C 2.875 -5.878906 3.363281 -6.441406 4.109375 -6.441406 C 4.945312 -6.441406 5.289062 -5.863281 5.261719 -4.714844 Z M 2.902344 -4.714844 "/></g></g></g><g fill="#3d5f66" fill-opacity="1"><g transform="translate(152.152403, 259.666477)"><g><path d="M 7.992188 -1.234375 C 7.976562 -2.53125 7.949219 -3.738281 7.976562 -4.742188 C 8.035156 -7.117188 7.273438 -8.078125 5.765625 -8.078125 C 4.65625 -8.078125 3.808594 -7.605469 3.261719 -6.597656 L 3.21875 -6.597656 C 3.21875 -6.886719 3.21875 -7.101562 3.21875 -7.289062 C 3.234375 -7.71875 2.804688 -7.964844 2.042969 -7.964844 C 1.265625 -7.964844 0.832031 -7.53125 0.832031 -6.742188 C 0.847656 -5.820312 0.863281 -4.917969 0.863281 -3.96875 C 0.863281 -3.03125 0.847656 -2.140625 0.832031 -1.222656 C 0.832031 -0.429688 1.265625 0 2.054688 0 L 2.140625 0 C 2.933594 0 3.363281 -0.429688 3.363281 -1.222656 C 3.347656 -2.140625 3.335938 -3.03125 3.347656 -3.96875 C 3.347656 -4.371094 3.363281 -4.785156 3.363281 -5.175781 C 3.59375 -5.691406 4.011719 -5.996094 4.558594 -6.007812 C 5.203125 -6.023438 5.535156 -5.707031 5.535156 -4.773438 C 5.535156 -3.78125 5.519531 -2.558594 5.503906 -1.234375 C 5.503906 -0.429688 5.9375 0 6.726562 0 L 6.769531 0 C 7.5625 0 7.992188 -0.429688 7.992188 -1.234375 Z M 7.992188 -1.234375 "/></g></g></g><g fill="#3d5f66" fill-opacity="1"><g transform="translate(160.978748, 259.666477)"><g><path d="M 4.558594 -1.738281 C 3.867188 -1.726562 3.566406 -2.113281 3.566406 -2.945312 C 3.566406 -3.695312 3.550781 -4.542969 3.578125 -5.363281 C 3.578125 -5.621094 3.59375 -5.863281 3.59375 -6.125 L 4.714844 -6.136719 C 5.433594 -6.136719 5.820312 -6.453125 5.820312 -7.042969 C 5.820312 -7.632812 5.390625 -7.949219 4.601562 -7.949219 L 3.59375 -7.949219 L 3.59375 -9.214844 C 3.59375 -9.976562 3.0625 -10.308594 2.257812 -10.046875 C 1.582031 -9.832031 1.25 -9.386719 1.25 -8.667969 C 1.25 -8.425781 1.265625 -8.195312 1.265625 -7.949219 L 0.660156 -7.949219 C 0.273438 -7.949219 0.0429688 -7.617188 0.0429688 -7.03125 C 0.0429688 -6.441406 0.472656 -6.109375 1.265625 -6.109375 L 1.28125 -6.109375 L 1.28125 -5.363281 C 1.28125 -4.441406 1.28125 -3.507812 1.265625 -2.660156 C 1.222656 -0.574219 2.371094 0.171875 4.15625 0.171875 C 4.484375 0.171875 4.816406 0.144531 5.101562 0.0859375 C 5.734375 -0.0429688 5.980469 -0.515625 5.921875 -1.136719 C 5.863281 -1.726562 5.390625 -1.769531 4.558594 -1.738281 Z M 4.558594 -1.738281 "/></g></g></g><g fill="#3d5f66" fill-opacity="1"><g transform="translate(167.160067, 259.666477)"><g><path d="M 5.40625 -8.066406 C 5.320312 -8.078125 5.203125 -8.09375 5.046875 -8.09375 C 4.097656 -8.09375 3.4375 -7.257812 3.207031 -6.082031 L 3.164062 -6.109375 L 3.164062 -7.042969 C 3.164062 -7.648438 2.746094 -7.964844 2 -7.964844 C 1.25 -7.964844 0.832031 -7.53125 0.832031 -6.742188 C 0.847656 -5.820312 0.863281 -4.929688 0.863281 -3.980469 C 0.863281 -3.03125 0.847656 -2.140625 0.832031 -1.222656 C 0.832031 -0.429688 1.265625 0 2.054688 0 L 2.097656 0 C 2.902344 0 3.320312 -0.445312 3.292969 -1.25 C 3.277344 -1.855469 3.261719 -2.445312 3.261719 -3.03125 C 3.261719 -3.335938 3.277344 -3.664062 3.277344 -3.980469 L 3.277344 -4.328125 C 3.535156 -5.101562 3.980469 -5.519531 4.613281 -5.519531 C 4.828125 -5.519531 5.003906 -5.492188 5.1875 -5.433594 C 5.546875 -5.304688 5.996094 -5.503906 6.179688 -6.253906 C 6.269531 -6.582031 6.28125 -6.929688 6.179688 -7.257812 C 5.996094 -7.820312 5.664062 -8.007812 5.40625 -8.066406 Z M 5.40625 -8.066406 "/></g></g></g><g fill="#3d5f66" fill-opacity="1"><g transform="translate(173.427636, 259.666477)"><g><path d="M 3.003906 0.144531 C 3.808594 0.144531 4.585938 -0.128906 5.160156 -0.691406 C 5.175781 -0.574219 5.1875 -0.460938 5.234375 -0.34375 C 5.289062 -0.113281 5.679688 0 6.410156 0 L 6.539062 0 C 7.316406 0 7.71875 -0.445312 7.675781 -1.25 C 7.632812 -2.226562 7.632812 -3.480469 7.632812 -5.203125 C 7.632812 -7.128906 6.570312 -8.078125 4.425781 -8.078125 C 2.328125 -8.078125 1.222656 -7.519531 0.890625 -6.398438 C 0.660156 -5.605469 1.25 -5.144531 2.054688 -5.144531 L 2.199219 -5.144531 C 2.902344 -5.144531 2.960938 -5.535156 3.378906 -6.167969 C 3.550781 -6.425781 3.867188 -6.527344 4.242188 -6.527344 C 4.875 -6.527344 5.160156 -6.210938 5.160156 -5.160156 L 5.160156 -4.671875 C 1.925781 -4.757812 0.445312 -3.824219 0.445312 -2.027344 C 0.445312 -0.515625 1.582031 0.144531 3.003906 0.144531 Z M 3.765625 -1.480469 C 3.089844 -1.480469 2.730469 -1.867188 2.730469 -2.414062 C 2.730469 -3.335938 3.882812 -3.492188 5.1875 -3.523438 L 5.1875 -2.226562 C 4.859375 -1.753906 4.414062 -1.480469 3.765625 -1.480469 Z M 3.765625 -1.480469 "/></g></g></g><g fill="#3d5f66" fill-opacity="1"><g transform="translate(181.793972, 259.666477)"><g/></g></g><g fill="#3d5f66" fill-opacity="1"><g transform="translate(185.387761, 259.666477)"><g><path d="M 3.003906 0.144531 C 3.808594 0.144531 4.585938 -0.128906 5.160156 -0.691406 C 5.175781 -0.574219 5.1875 -0.460938 5.234375 -0.34375 C 5.289062 -0.113281 5.679688 0 6.410156 0 L 6.539062 0 C 7.316406 0 7.71875 -0.445312 7.675781 -1.25 C 7.632812 -2.226562 7.632812 -3.480469 7.632812 -5.203125 C 7.632812 -7.128906 6.570312 -8.078125 4.425781 -8.078125 C 2.328125 -8.078125 1.222656 -7.519531 0.890625 -6.398438 C 0.660156 -5.605469 1.25 -5.144531 2.054688 -5.144531 L 2.199219 -5.144531 C 2.902344 -5.144531 2.960938 -5.535156 3.378906 -6.167969 C 3.550781 -6.425781 3.867188 -6.527344 4.242188 -6.527344 C 4.875 -6.527344 5.160156 -6.210938 5.160156 -5.160156 L 5.160156 -4.671875 C 1.925781 -4.757812 0.445312 -3.824219 0.445312 -2.027344 C 0.445312 -0.515625 1.582031 0.144531 3.003906 0.144531 Z M 3.765625 -1.480469 C 3.089844 -1.480469 2.730469 -1.867188 2.730469 -2.414062 C 2.730469 -3.335938 3.882812 -3.492188 5.1875 -3.523438 L 5.1875 -2.226562 C 4.859375 -1.753906 4.414062 -1.480469 3.765625 -1.480469 Z M 3.765625 -1.480469 "/></g></g></g><g fill="#3d5f66" fill-opacity="1"><g transform="translate(193.754098, 259.666477)"><g/></g></g><g fill="#3d5f66" fill-opacity="1"><g transform="translate(197.347887, 259.666477)"><g><path d="M 4.558594 -1.738281 C 3.867188 -1.726562 3.566406 -2.113281 3.566406 -2.945312 C 3.566406 -3.695312 3.550781 -4.542969 3.578125 -5.363281 C 3.578125 -5.621094 3.59375 -5.863281 3.59375 -6.125 L 4.714844 -6.136719 C 5.433594 -6.136719 5.820312 -6.453125 5.820312 -7.042969 C 5.820312 -7.632812 5.390625 -7.949219 4.601562 -7.949219 L 3.59375 -7.949219 L 3.59375 -9.214844 C 3.59375 -9.976562 3.0625 -10.308594 2.257812 -10.046875 C 1.582031 -9.832031 1.25 -9.386719 1.25 -8.667969 C 1.25 -8.425781 1.265625 -8.195312 1.265625 -7.949219 L 0.660156 -7.949219 C 0.273438 -7.949219 0.0429688 -7.617188 0.0429688 -7.03125 C 0.0429688 -6.441406 0.472656 -6.109375 1.265625 -6.109375 L 1.28125 -6.109375 L 1.28125 -5.363281 C 1.28125 -4.441406 1.28125 -3.507812 1.265625 -2.660156 C 1.222656 -0.574219 2.371094 0.171875 4.15625 0.171875 C 4.484375 0.171875 4.816406 0.144531 5.101562 0.0859375 C 5.734375 -0.0429688 5.980469 -0.515625 5.921875 -1.136719 C 5.863281 -1.726562 5.390625 -1.769531 4.558594 -1.738281 Z M 4.558594 -1.738281 "/></g></g></g><g fill="#3d5f66" fill-opacity="1"><g transform="translate(203.529206, 259.666477)"><g><path d="M 6.671875 -7.949219 L 6.582031 -7.949219 C 5.792969 -7.949219 5.363281 -7.519531 5.375 -6.726562 C 5.390625 -5.707031 5.40625 -4.714844 5.375 -3.679688 C 5.375 -2.5 4.917969 -1.910156 4.253906 -1.898438 C 3.679688 -1.882812 3.335938 -2.34375 3.335938 -3.261719 C 3.335938 -4.441406 3.347656 -5.5625 3.363281 -6.726562 C 3.363281 -7.519531 2.933594 -7.949219 2.140625 -7.949219 L 2.054688 -7.949219 C 1.265625 -7.949219 0.832031 -7.519531 0.832031 -6.726562 C 0.847656 -5.40625 0.875 -4.140625 0.847656 -2.804688 C 0.804688 -0.617188 1.753906 0.15625 3.164062 0.15625 C 4.296875 0.15625 5.117188 -0.386719 5.5625 -1.324219 C 5.59375 -1.09375 5.636719 -0.875 5.691406 -0.648438 C 5.820312 -0.203125 6.238281 0 6.898438 0 C 7.53125 0 7.890625 -0.429688 7.878906 -1.222656 C 7.878906 -2.042969 7.863281 -2.847656 7.863281 -3.679688 C 7.863281 -4.714844 7.878906 -5.707031 7.890625 -6.726562 C 7.890625 -7.519531 7.460938 -7.949219 6.671875 -7.949219 Z M 6.671875 -7.949219 "/></g></g></g><g fill="#3d5f66" fill-opacity="1"><g transform="translate(212.254926, 259.666477)"><g/></g></g><g fill="#3d5f66" fill-opacity="1"><g transform="translate(215.848715, 259.666477)"><g><path d="M 12.492188 -1.234375 C 12.476562 -2.53125 12.449219 -3.738281 12.476562 -4.742188 C 12.535156 -7.117188 11.773438 -8.078125 10.265625 -8.078125 C 9.15625 -8.078125 8.308594 -7.605469 7.761719 -6.597656 L 7.71875 -6.597656 C 7.402344 -7.632812 6.726562 -8.078125 5.691406 -8.078125 C 4.585938 -8.078125 3.738281 -7.605469 3.191406 -6.597656 L 3.175781 -6.597656 C 3.191406 -6.871094 3.191406 -7.101562 3.207031 -7.289062 C 3.207031 -7.71875 2.761719 -7.964844 1.96875 -7.964844 C 1.179688 -7.964844 0.746094 -7.53125 0.761719 -6.742188 C 0.777344 -5.820312 0.789062 -4.929688 0.789062 -3.980469 C 0.789062 -3.03125 0.777344 -2.140625 0.761719 -1.222656 C 0.746094 -0.429688 1.179688 0 1.96875 0 L 2.070312 0 C 2.859375 0 3.292969 -0.429688 3.277344 -1.222656 C 3.277344 -2.140625 3.261719 -3.03125 3.277344 -3.980469 L 3.277344 -5.175781 C 3.523438 -5.691406 3.9375 -5.996094 4.484375 -6.007812 C 5.132812 -6.023438 5.460938 -5.707031 5.460938 -4.773438 C 5.460938 -3.78125 5.449219 -2.558594 5.433594 -1.234375 C 5.433594 -0.429688 5.863281 0 6.65625 0 L 6.699219 0 C 7.488281 0 7.921875 -0.429688 7.921875 -1.234375 C 7.90625 -2.53125 7.878906 -3.738281 7.90625 -4.742188 L 7.90625 -5.277344 C 8.152344 -5.734375 8.539062 -5.996094 9.054688 -6.007812 C 9.703125 -6.023438 10.035156 -5.707031 10.035156 -4.773438 C 10.035156 -3.78125 10.019531 -2.558594 10.003906 -1.234375 C 10.003906 -0.429688 10.4375 0 11.226562 0 L 11.269531 0 C 12.0625 0 12.492188 -0.429688 12.492188 -1.234375 Z M 12.492188 -1.234375 "/></g></g></g><g fill="#3d5f66" fill-opacity="1"><g transform="translate(229.174483, 259.666477)"><g><path d="M 3.003906 0.144531 C 3.808594 0.144531 4.585938 -0.128906 5.160156 -0.691406 C 5.175781 -0.574219 5.1875 -0.460938 5.234375 -0.34375 C 5.289062 -0.113281 5.679688 0 6.410156 0 L 6.539062 0 C 7.316406 0 7.71875 -0.445312 7.675781 -1.25 C 7.632812 -2.226562 7.632812 -3.480469 7.632812 -5.203125 C 7.632812 -7.128906 6.570312 -8.078125 4.425781 -8.078125 C 2.328125 -8.078125 1.222656 -7.519531 0.890625 -6.398438 C 0.660156 -5.605469 1.25 -5.144531 2.054688 -5.144531 L 2.199219 -5.144531 C 2.902344 -5.144531 2.960938 -5.535156 3.378906 -6.167969 C 3.550781 -6.425781 3.867188 -6.527344 4.242188 -6.527344 C 4.875 -6.527344 5.160156 -6.210938 5.160156 -5.160156 L 5.160156 -4.671875 C 1.925781 -4.757812 0.445312 -3.824219 0.445312 -2.027344 C 0.445312 -0.515625 1.582031 0.144531 3.003906 0.144531 Z M 3.765625 -1.480469 C 3.089844 -1.480469 2.730469 -1.867188 2.730469 -2.414062 C 2.730469 -3.335938 3.882812 -3.492188 5.1875 -3.523438 L 5.1875 -2.226562 C 4.859375 -1.753906 4.414062 -1.480469 3.765625 -1.480469 Z M 3.765625 -1.480469 "/></g></g></g><g fill="#3d5f66" fill-opacity="1"><g transform="translate(237.540819, 259.666477)"><g><path d="M 3.824219 0.171875 C 6.125 0.171875 7.332031 -0.71875 7.332031 -2.488281 C 7.332031 -5.664062 2.988281 -3.96875 2.988281 -5.722656 C 2.988281 -6.167969 3.21875 -6.425781 3.996094 -6.425781 C 4.414062 -6.425781 4.6875 -6.355469 4.84375 -6.195312 C 5.277344 -5.707031 5.347656 -5.347656 6.023438 -5.347656 L 6.082031 -5.347656 C 6.757812 -5.347656 7.273438 -5.792969 7.042969 -6.570312 C 6.726562 -7.574219 5.722656 -8.078125 3.996094 -8.078125 C 1.738281 -8.078125 0.617188 -7.273438 0.617188 -5.636719 C 0.617188 -2.257812 4.945312 -4.023438 4.945312 -2.171875 C 4.945312 -1.738281 4.628906 -1.421875 3.722656 -1.421875 C 3.25 -1.421875 2.976562 -1.496094 2.832031 -1.683594 C 2.414062 -2.226562 2.359375 -2.601562 1.667969 -2.601562 L 1.625 -2.601562 C 0.949219 -2.601562 0.417969 -2.140625 0.675781 -1.351562 C 0.992188 -0.34375 1.96875 0.171875 3.824219 0.171875 Z M 3.824219 0.171875 "/></g></g></g><g fill="#3d5f66" fill-opacity="1"><g transform="translate(245.418402, 259.666477)"><g><path d="M 4.210938 0.144531 C 5.953125 0.144531 7 -0.515625 7.347656 -1.769531 C 7.546875 -2.5 7.074219 -2.945312 6.382812 -2.945312 C 5.664062 -2.945312 5.5625 -2.53125 5.101562 -1.910156 C 4.929688 -1.695312 4.644531 -1.609375 4.242188 -1.609375 C 3.480469 -1.609375 2.976562 -2.054688 2.976562 -3.9375 C 2.976562 -5.59375 3.320312 -6.167969 4.242188 -6.167969 C 4.742188 -6.167969 5.003906 -6.039062 5.144531 -5.734375 C 5.449219 -5.03125 5.636719 -4.644531 6.382812 -4.644531 C 7.101562 -4.644531 7.574219 -5.117188 7.390625 -5.921875 C 7.058594 -7.316406 6.050781 -8.078125 4.285156 -8.078125 C 1.753906 -8.078125 0.515625 -6.683594 0.515625 -3.9375 C 0.515625 -1.207031 1.652344 0.144531 4.210938 0.144531 Z M 4.210938 0.144531 "/></g></g></g><g fill="#3d5f66" fill-opacity="1"><g transform="translate(253.382235, 259.666477)"><g><path d="M 4.210938 0.171875 C 6.65625 0.171875 7.847656 -1.191406 7.847656 -3.953125 C 7.847656 -6.699219 6.65625 -8.078125 4.210938 -8.078125 C 1.738281 -8.078125 0.515625 -6.699219 0.515625 -3.953125 C 0.515625 -1.191406 1.738281 0.171875 4.210938 0.171875 Z M 4.210938 -1.582031 C 3.480469 -1.582031 2.976562 -2.042969 2.976562 -3.953125 C 2.976562 -5.707031 3.304688 -6.324219 4.210938 -6.324219 C 5.046875 -6.324219 5.390625 -5.707031 5.390625 -3.953125 C 5.390625 -2.042969 4.886719 -1.582031 4.210938 -1.582031 Z M 4.210938 -1.582031 "/></g></g></g><g fill="#3d5f66" fill-opacity="1"><g transform="translate(261.748571, 259.666477)"><g><path d="M 4.558594 -1.738281 C 3.867188 -1.726562 3.566406 -2.113281 3.566406 -2.945312 C 3.566406 -3.695312 3.550781 -4.542969 3.578125 -5.363281 C 3.578125 -5.621094 3.59375 -5.863281 3.59375 -6.125 L 4.714844 -6.136719 C 5.433594 -6.136719 5.820312 -6.453125 5.820312 -7.042969 C 5.820312 -7.632812 5.390625 -7.949219 4.601562 -7.949219 L 3.59375 -7.949219 L 3.59375 -9.214844 C 3.59375 -9.976562 3.0625 -10.308594 2.257812 -10.046875 C 1.582031 -9.832031 1.25 -9.386719 1.25 -8.667969 C 1.25 -8.425781 1.265625 -8.195312 1.265625 -7.949219 L 0.660156 -7.949219 C 0.273438 -7.949219 0.0429688 -7.617188 0.0429688 -7.03125 C 0.0429688 -6.441406 0.472656 -6.109375 1.265625 -6.109375 L 1.28125 -6.109375 L 1.28125 -5.363281 C 1.28125 -4.441406 1.28125 -3.507812 1.265625 -2.660156 C 1.222656 -0.574219 2.371094 0.171875 4.15625 0.171875 C 4.484375 0.171875 4.816406 0.144531 5.101562 0.0859375 C 5.734375 -0.0429688 5.980469 -0.515625 5.921875 -1.136719 C 5.863281 -1.726562 5.390625 -1.769531 4.558594 -1.738281 Z M 4.558594 -1.738281 "/></g></g></g><g fill="#3d5f66" fill-opacity="1"><g transform="translate(267.929881, 259.666477)"><g><path d="M 3.003906 0.144531 C 3.808594 0.144531 4.585938 -0.128906 5.160156 -0.691406 C 5.175781 -0.574219 5.1875 -0.460938 5.234375 -0.34375 C 5.289062 -0.113281 5.679688 0 6.410156 0 L 6.539062 0 C 7.316406 0 7.71875 -0.445312 7.675781 -1.25 C 7.632812 -2.226562 7.632812 -3.480469 7.632812 -5.203125 C 7.632812 -7.128906 6.570312 -8.078125 4.425781 -8.078125 C 2.328125 -8.078125 1.222656 -7.519531 0.890625 -6.398438 C 0.660156 -5.605469 1.25 -5.144531 2.054688 -5.144531 L 2.199219 -5.144531 C 2.902344 -5.144531 2.960938 -5.535156 3.378906 -6.167969 C 3.550781 -6.425781 3.867188 -6.527344 4.242188 -6.527344 C 4.875 -6.527344 5.160156 -6.210938 5.160156 -5.160156 L 5.160156 -4.671875 C 1.925781 -4.757812 0.445312 -3.824219 0.445312 -2.027344 C 0.445312 -0.515625 1.582031 0.144531 3.003906 0.144531 Z M 3.765625 -1.480469 C 3.089844 -1.480469 2.730469 -1.867188 2.730469 -2.414062 C 2.730469 -3.335938 3.882812 -3.492188 5.1875 -3.523438 L 5.1875 -2.226562 C 4.859375 -1.753906 4.414062 -1.480469 3.765625 -1.480469 Z M 3.765625 -1.480469 "/></g></g></g></svg>