<svg xmlns="http://www.w3.org/2000/svg" xmlns:xlink="http://www.w3.org/1999/xlink" width="500" zoomAndPan="magnify" viewBox="0 0 375 374.999991" height="500" preserveAspectRatio="xMidYMid meet" version="1.0"><defs><clipPath id="id1"><path d="M 3.171875 6.34375 L 372.171875 6.34375 L 372.171875 375 L 3.171875 375 Z M 3.171875 6.34375 " clip-rule="nonzero"/></clipPath></defs><g clip-path="url(#id1)"><path fill="#78b8c6" d="M 187.671875 6.34375 C 85.933594 6.34375 3.171875 89.105469 3.171875 190.84375 C 3.171875 248.222656 29.054688 301.199219 74.097656 336.148438 C 100.035156 356.550781 130.898438 369.542969 163.132812 373.65625 C 171.117188 374.789062 179.394531 375.34375 187.671875 375.34375 C 195.949219 375.34375 204.222656 374.789062 212 373.683594 C 244.445312 369.542969 275.308594 356.578125 301.191406 336.203125 C 346.316406 301.199219 372.171875 248.195312 372.171875 190.84375 C 372.171875 89.105469 289.382812 6.34375 187.671875 6.34375 Z M 293.101562 308.34375 L 293.101562 290.472656 C 293.101562 264.640625 245.921875 243.558594 187.671875 243.558594 C 129.421875 243.558594 82.242188 264.640625 82.242188 290.472656 L 82.242188 308.34375 C 48.742188 278.53125 29.527344 236.386719 29.527344 190.84375 C 29.527344 103.625 100.457031 32.699219 187.671875 32.699219 C 274.886719 32.699219 345.8125 103.625 345.8125 190.84375 C 345.8125 236.359375 326.625 278.453125 293.101562 308.34375 Z M 293.101562 308.34375 " fill-opacity="1" fill-rule="nonzero"/></g><path fill="#78b8c6" d="M 253.5625 151.308594 C 253.5625 152.386719 253.539062 153.464844 253.484375 154.539062 C 253.433594 155.617188 253.351562 156.691406 253.246094 157.765625 C 253.140625 158.839844 253.007812 159.910156 252.851562 160.976562 C 252.691406 162.042969 252.507812 163.105469 252.296875 164.160156 C 252.085938 165.21875 251.851562 166.269531 251.589844 167.316406 C 251.328125 168.363281 251.039062 169.402344 250.726562 170.433594 C 250.414062 171.464844 250.074219 172.488281 249.710938 173.503906 C 249.347656 174.519531 248.960938 175.527344 248.546875 176.523438 C 248.136719 177.519531 247.699219 178.503906 247.238281 179.480469 C 246.777344 180.453125 246.292969 181.417969 245.785156 182.367188 C 245.273438 183.320312 244.742188 184.257812 244.1875 185.183594 C 243.636719 186.105469 243.058594 187.019531 242.460938 187.914062 C 241.859375 188.8125 241.238281 189.691406 240.597656 190.558594 C 239.953125 191.425781 239.292969 192.273438 238.605469 193.109375 C 237.921875 193.941406 237.21875 194.757812 236.496094 195.558594 C 235.769531 196.355469 235.027344 197.136719 234.265625 197.898438 C 233.503906 198.664062 232.722656 199.40625 231.921875 200.128906 C 231.125 200.855469 230.308594 201.558594 229.472656 202.242188 C 228.640625 202.925781 227.789062 203.589844 226.921875 204.230469 C 226.058594 204.875 225.175781 205.496094 224.28125 206.09375 C 223.382812 206.695312 222.472656 207.269531 221.546875 207.824219 C 220.621094 208.378906 219.683594 208.910156 218.734375 209.417969 C 217.78125 209.925781 216.820312 210.414062 215.84375 210.875 C 214.871094 211.335938 213.882812 211.769531 212.886719 212.183594 C 211.890625 212.597656 210.886719 212.984375 209.871094 213.347656 C 208.855469 213.710938 207.832031 214.050781 206.800781 214.363281 C 205.765625 214.675781 204.726562 214.960938 203.683594 215.226562 C 202.636719 215.488281 201.582031 215.722656 200.527344 215.933594 C 199.46875 216.144531 198.40625 216.328125 197.339844 216.488281 C 196.273438 216.644531 195.203125 216.777344 194.128906 216.882812 C 193.058594 216.988281 191.980469 217.066406 190.90625 217.121094 C 189.828125 217.171875 188.75 217.199219 187.671875 217.199219 C 186.59375 217.199219 185.515625 217.171875 184.4375 217.121094 C 183.359375 217.066406 182.285156 216.988281 181.210938 216.882812 C 180.140625 216.777344 179.070312 216.644531 178.003906 216.488281 C 176.9375 216.328125 175.875 216.144531 174.816406 215.933594 C 173.757812 215.722656 172.707031 215.488281 171.660156 215.226562 C 170.613281 214.960938 169.574219 214.675781 168.542969 214.363281 C 167.511719 214.050781 166.488281 213.710938 165.472656 213.347656 C 164.457031 212.984375 163.453125 212.597656 162.457031 212.183594 C 161.457031 211.769531 160.472656 211.335938 159.5 210.875 C 158.523438 210.414062 157.5625 209.925781 156.609375 209.417969 C 155.660156 208.910156 154.71875 208.378906 153.796875 207.824219 C 152.871094 207.269531 151.960938 206.695312 151.0625 206.09375 C 150.167969 205.496094 149.285156 204.875 148.417969 204.234375 C 147.554688 203.589844 146.703125 202.925781 145.871094 202.242188 C 145.035156 201.558594 144.21875 200.855469 143.421875 200.128906 C 142.621094 199.40625 141.839844 198.664062 141.078125 197.898438 C 140.316406 197.136719 139.570312 196.355469 138.847656 195.558594 C 138.125 194.757812 137.417969 193.941406 136.734375 193.109375 C 136.050781 192.273438 135.386719 191.425781 134.746094 190.558594 C 134.101562 189.691406 133.484375 188.8125 132.882812 187.914062 C 132.285156 187.019531 131.707031 186.105469 131.152344 185.183594 C 130.597656 184.257812 130.066406 183.320312 129.558594 182.367188 C 129.050781 181.417969 128.566406 180.453125 128.105469 179.480469 C 127.644531 178.503906 127.207031 177.519531 126.792969 176.523438 C 126.382812 175.527344 125.992188 174.519531 125.628906 173.503906 C 125.265625 172.488281 124.929688 171.464844 124.617188 170.433594 C 124.300781 169.402344 124.015625 168.363281 123.753906 167.316406 C 123.492188 166.269531 123.253906 165.21875 123.042969 164.160156 C 122.835938 163.105469 122.648438 162.042969 122.492188 160.976562 C 122.332031 159.910156 122.203125 158.839844 122.09375 157.765625 C 121.988281 156.691406 121.910156 155.617188 121.859375 154.539062 C 121.804688 153.464844 121.777344 152.386719 121.777344 151.308594 C 121.777344 150.226562 121.804688 149.152344 121.859375 148.074219 C 121.910156 146.996094 121.988281 145.921875 122.09375 144.847656 C 122.203125 143.773438 122.332031 142.703125 122.492188 141.636719 C 122.648438 140.570312 122.835938 139.507812 123.042969 138.453125 C 123.253906 137.394531 123.492188 136.34375 123.753906 135.296875 C 124.015625 134.25 124.300781 133.210938 124.617188 132.179688 C 124.929688 131.148438 125.265625 130.125 125.628906 129.109375 C 125.992188 128.09375 126.382812 127.085938 126.792969 126.089844 C 127.207031 125.09375 127.644531 124.109375 128.105469 123.132812 C 128.566406 122.160156 129.050781 121.195312 129.558594 120.246094 C 130.066406 119.292969 130.597656 118.355469 131.152344 117.429688 C 131.707031 116.507812 132.285156 115.59375 132.882812 114.699219 C 133.484375 113.800781 134.101562 112.921875 134.746094 112.054688 C 135.386719 111.1875 136.050781 110.339844 136.734375 109.503906 C 137.417969 108.671875 138.125 107.855469 138.847656 107.054688 C 139.570312 106.257812 140.316406 105.476562 141.078125 104.714844 C 141.839844 103.949219 142.621094 103.207031 143.421875 102.484375 C 144.21875 101.757812 145.035156 101.054688 145.871094 100.371094 C 146.703125 99.6875 147.554688 99.023438 148.417969 98.382812 C 149.285156 97.738281 150.167969 97.117188 151.0625 96.519531 C 151.960938 95.917969 152.871094 95.34375 153.796875 94.789062 C 154.71875 94.234375 155.660156 93.703125 156.609375 93.195312 C 157.5625 92.6875 158.523438 92.203125 159.5 91.742188 C 160.472656 91.28125 161.457031 90.84375 162.457031 90.429688 C 163.453125 90.015625 164.457031 89.628906 165.472656 89.265625 C 166.488281 88.902344 167.511719 88.5625 168.542969 88.25 C 169.574219 87.9375 170.613281 87.652344 171.660156 87.390625 C 172.707031 87.125 173.757812 86.890625 174.816406 86.679688 C 175.875 86.46875 176.9375 86.285156 178.003906 86.128906 C 179.070312 85.96875 180.140625 85.835938 181.210938 85.730469 C 182.285156 85.625 183.359375 85.546875 184.4375 85.492188 C 185.515625 85.441406 186.59375 85.414062 187.671875 85.414062 C 188.75 85.414062 189.828125 85.441406 190.90625 85.492188 C 191.980469 85.546875 193.058594 85.625 194.128906 85.730469 C 195.203125 85.835938 196.273438 85.96875 197.339844 86.128906 C 198.40625 86.285156 199.46875 86.46875 200.527344 86.679688 C 201.582031 86.890625 202.636719 87.125 203.683594 87.390625 C 204.726562 87.652344 205.765625 87.9375 206.800781 88.25 C 207.832031 88.5625 208.855469 88.902344 209.871094 89.265625 C 210.886719 89.628906 211.890625 90.015625 212.886719 90.429688 C 213.882812 90.84375 214.871094 91.28125 215.84375 91.742188 C 216.820312 92.203125 217.78125 92.6875 218.734375 93.195312 C 219.683594 93.703125 220.621094 94.234375 221.546875 94.789062 C 222.472656 95.34375 223.382812 95.917969 224.28125 96.519531 C 225.175781 97.117188 226.058594 97.738281 226.921875 98.382812 C 227.789062 99.023438 228.640625 99.6875 229.472656 100.371094 C 230.308594 101.054688 231.125 101.757812 231.921875 102.484375 C 232.722656 103.207031 233.503906 103.949219 234.265625 104.714844 C 235.027344 105.476562 235.769531 106.257812 236.496094 107.054688 C 237.21875 107.855469 237.921875 108.671875 238.605469 109.503906 C 239.292969 110.339844 239.953125 111.1875 240.597656 112.054688 C 241.238281 112.921875 241.859375 113.800781 242.460938 114.699219 C 243.058594 115.59375 243.636719 116.507812 244.1875 117.429688 C 244.742188 118.355469 245.273438 119.292969 245.785156 120.246094 C 246.292969 121.195312 246.777344 122.160156 247.238281 123.132812 C 247.699219 124.109375 248.136719 125.09375 248.546875 126.089844 C 248.960938 127.085938 249.347656 128.09375 249.710938 129.109375 C 250.074219 130.125 250.414062 131.148438 250.726562 132.179688 C 251.039062 133.210938 251.328125 134.25 251.589844 135.296875 C 251.851562 136.34375 252.085938 137.394531 252.296875 138.453125 C 252.507812 139.507812 252.691406 140.570312 252.851562 141.636719 C 253.007812 142.703125 253.140625 143.773438 253.246094 144.847656 C 253.351562 145.921875 253.433594 146.996094 253.484375 148.074219 C 253.539062 149.152344 253.5625 150.226562 253.5625 151.308594 Z M 253.5625 151.308594 " fill-opacity="1" fill-rule="nonzero"/></svg>